<svg id="svg" version="1.1" xmlns="http://www.w3.org/2000/svg" xmlns:xlink="http://www.w3.org/1999/xlink" width="400" height="405.6666666666667" viewBox="0, 0, 400,405.6666666666667"><g id="svgg"><path id="path0" d="M126.083 16.944 C 119.071 21.093,113.334 24.566,113.335 24.661 C 113.335 24.756,118.565 31.583,124.956 39.833 C 131.347 48.083,136.537 54.880,136.489 54.938 C 136.441 54.996,135.086 54.578,133.477 54.011 C 106.817 44.601,82.471 50.307,62.999 70.531 C 59.483 74.183,54.788 79.899,55.072 80.184 C 55.156 80.267,57.462 80.085,60.196 79.779 C 74.505 78.178,89.027 79.279,101.206 82.887 L 105.500 84.160 102.872 84.401 C 89.594 85.622,78.398 90.700,54.167 106.492 C 44.565 112.749,39.905 115.537,37.395 116.524 C 36.591 116.840,36.083 117.216,36.243 117.377 C 36.649 117.783,51.556 121.994,53.167 122.158 C 53.900 122.232,56.525 122.758,59.000 123.326 C 90.898 130.647,108.912 126.480,127.868 107.394 L 131.570 103.666 132.965 105.655 C 138.987 114.240,138.476 122.380,130.865 139.126 C 126.943 147.755,126.899 146.814,131.211 146.537 C 164.855 144.374,182.861 129.277,184.229 102.083 C 184.342 99.837,184.566 98.000,184.727 98.000 C 184.888 98.000,185.946 98.468,187.078 99.039 C 203.760 107.460,219.202 106.812,255.500 96.167 C 282.335 88.297,291.552 87.101,302.014 90.132 L 304.675 90.902 303.689 89.155 C 303.147 88.194,302.791 87.320,302.898 87.213 C 303.005 87.106,301.459 85.393,299.463 83.405 C 281.487 65.511,241.785 56.626,212.034 63.840 C 207.954 64.829,208.341 65.004,208.709 62.333 C 210.098 52.256,216.261 45.480,227.463 41.716 C 229.063 41.179,230.441 40.670,230.525 40.587 C 231.157 39.954,221.873 32.375,217.211 29.719 C 197.941 18.739,173.937 28.307,159.123 52.874 C 158.787 53.431,158.656 53.297,157.938 51.667 C 157.494 50.658,153.164 40.724,148.315 29.589 C 143.467 18.455,139.350 9.357,139.167 9.372 C 138.983 9.387,133.096 12.794,126.083 16.944 " stroke="none" fill="#04932b" fill-rule="evenodd"></path><path id="path1" d="M303.333 87.819 C 303.333 87.933,303.644 88.635,304.023 89.379 C 304.915 91.126,304.833 91.168,302.119 90.361 C 291.992 87.349,281.463 88.702,255.667 96.330 C 219.495 107.027,203.859 107.719,187.218 99.359 L 184.667 98.077 184.661 99.789 C 184.565 128.200,166.065 144.254,130.417 146.861 C 126.662 147.135,126.689 147.767,130.134 140.228 C 138.339 122.272,138.897 114.268,132.562 105.410 L 131.544 103.986 127.022 108.436 C 108.022 127.136,89.993 130.931,57.088 123.156 C 55.174 122.703,53.433 122.334,53.220 122.334 C 51.262 122.337,35.215 143.462,29.166 154.000 C 0.989 203.082,4.685 269.036,38.486 320.333 C 49.003 336.295,73.551 357.934,96.167 371.180 C 166.916 412.616,262.114 402.985,328.667 347.660 C 357.313 323.846,372.914 297.161,380.795 258.500 C 395.063 188.502,369.945 129.165,310.266 91.886 C 304.081 88.023,303.333 87.584,303.333 87.819 " stroke="none" fill="#fc2c04" fill-rule="evenodd"></path><path id="path2" d="M289.917 88.911 C 290.696 88.981,291.971 88.981,292.750 88.911 C 293.529 88.841,292.892 88.783,291.333 88.783 C 289.775 88.783,289.137 88.841,289.917 88.911 M84.254 126.902 C 84.669 126.982,85.269 126.979,85.587 126.896 C 85.906 126.812,85.567 126.747,84.833 126.751 C 84.100 126.754,83.839 126.823,84.254 126.902 M172.484 131.417 L 171.167 132.833 172.583 131.516 C 173.901 130.290,174.153 130.000,173.901 130.000 C 173.847 130.000,173.209 130.637,172.484 131.417 " stroke="none" fill="#995710" fill-rule="evenodd"></path><path id="path3" d="M184.411 99.000 C 184.411 99.642,184.479 99.904,184.563 99.583 C 184.647 99.263,184.647 98.737,184.563 98.417 C 184.479 98.096,184.411 98.358,184.411 99.000 M129.986 105.250 L 128.500 106.833 130.020 105.409 C 130.856 104.626,131.668 104.101,131.824 104.242 C 131.979 104.384,131.999 104.313,131.867 104.083 C 131.549 103.531,131.671 103.455,129.986 105.250 M211.243 104.907 C 211.834 104.981,212.884 104.982,213.576 104.910 C 214.267 104.838,213.783 104.778,212.500 104.776 C 211.217 104.775,210.651 104.834,211.243 104.907 M125.315 109.917 L 124.167 111.167 125.417 110.018 C 126.104 109.386,126.667 108.824,126.667 108.768 C 126.667 108.513,126.385 108.753,125.315 109.917 M127.333 146.713 C 127.333 146.871,127.708 147.000,128.167 147.000 C 128.625 147.000,129.000 146.942,129.000 146.872 C 129.000 146.802,128.625 146.673,128.167 146.585 C 127.708 146.497,127.333 146.555,127.333 146.713 " stroke="none" fill="#5c6e1a" fill-rule="evenodd"></path><path id="path4" d="M81.921 126.902 C 82.335 126.982,82.935 126.979,83.254 126.896 C 83.573 126.812,83.233 126.747,82.500 126.751 C 81.767 126.754,81.506 126.823,81.921 126.902 M86.587 126.902 C 87.002 126.982,87.602 126.979,87.921 126.896 C 88.239 126.812,87.900 126.747,87.167 126.751 C 86.433 126.754,86.173 126.823,86.587 126.902 " stroke="none" fill="#bc4c0c" fill-rule="evenodd"></path></g></svg>