<svg id="svg" version="1.1" xmlns="http://www.w3.org/2000/svg" xmlns:xlink="http://www.w3.org/1999/xlink" width="400" height="403.8095238095238" viewBox="0, 0, 400,403.8095238095238"><g id="svgg"><path id="path0" d="M155.200 19.600 C 155.200 19.820,155.661 20.000,156.224 20.000 C 156.804 20.000,157.140 19.827,157.000 19.600 C 156.864 19.380,156.403 19.200,155.976 19.200 C 155.549 19.200,155.200 19.380,155.200 19.600 M167.200 19.600 C 167.200 19.820,167.650 20.000,168.200 20.000 C 168.750 20.000,169.200 19.820,169.200 19.600 C 169.200 19.380,168.750 19.200,168.200 19.200 C 167.650 19.200,167.200 19.380,167.200 19.600 M171.400 20.000 C 171.264 20.220,171.534 20.400,172.000 20.400 C 172.466 20.400,172.736 20.220,172.600 20.000 C 172.464 19.780,172.194 19.600,172.000 19.600 C 171.806 19.600,171.536 19.780,171.400 20.000 M134.012 23.984 C 133.688 24.189,133.544 24.478,133.693 24.626 C 133.841 24.774,134.253 24.604,134.610 24.248 C 135.313 23.544,134.957 23.387,134.012 23.984 M185.200 24.357 C 185.200 24.801,186.431 25.303,186.746 24.988 C 186.873 24.861,186.712 24.589,186.388 24.384 C 185.640 23.911,185.200 23.901,185.200 24.357 M192.800 29.413 C 192.800 29.822,195.655 32.478,195.867 32.267 C 195.984 32.149,195.438 31.411,194.653 30.627 C 193.292 29.266,192.800 28.943,192.800 29.413 M119.249 34.828 C 118.079 35.943,117.237 36.970,117.376 37.109 C 117.515 37.248,118.656 36.336,119.910 35.081 C 122.733 32.258,122.170 32.042,119.249 34.828 M197.292 34.475 C 197.491 35.073,198.400 35.402,198.400 34.876 C 198.400 34.661,198.115 34.376,197.767 34.243 C 197.377 34.093,197.194 34.182,197.292 34.475 M105.600 63.376 C 105.600 64.602,105.828 64.701,106.116 63.600 C 106.231 63.161,106.162 62.700,105.962 62.577 C 105.763 62.454,105.600 62.813,105.600 63.376 M105.600 72.224 C 105.600 72.787,105.763 73.146,105.962 73.023 C 106.162 72.900,106.231 72.439,106.116 72.000 C 105.828 70.899,105.600 70.998,105.600 72.224 M206.284 72.800 C 206.169 73.239,206.238 73.700,206.438 73.823 C 206.637 73.946,206.800 73.587,206.800 73.024 C 206.800 71.798,206.572 71.699,206.284 72.800 M305.601 76.300 C 305.602 76.465,306.952 76.611,308.601 76.625 C 310.250 76.638,311.600 76.503,311.600 76.325 C 311.600 76.146,310.250 76.000,308.600 76.000 C 306.950 76.000,305.600 76.135,305.601 76.300 M317.200 77.200 C 317.200 77.420,317.470 77.600,317.800 77.600 C 318.130 77.600,318.400 77.420,318.400 77.200 C 318.400 76.980,318.130 76.800,317.800 76.800 C 317.470 76.800,317.200 76.980,317.200 77.200 M205.600 78.200 C 205.600 78.530,205.780 78.800,206.000 78.800 C 206.220 78.800,206.400 78.530,206.400 78.200 C 206.400 77.870,206.220 77.600,206.000 77.600 C 205.780 77.600,205.600 77.870,205.600 78.200 M109.625 87.000 C 109.625 87.220,109.890 87.749,110.213 88.176 C 110.536 88.604,110.800 88.773,110.800 88.553 C 110.800 88.333,110.536 87.804,110.213 87.376 C 109.890 86.949,109.625 86.780,109.625 87.000 M339.600 88.738 C 339.600 89.269,341.175 90.558,341.467 90.267 C 341.611 90.123,341.402 89.644,341.002 89.202 C 340.248 88.369,339.600 88.154,339.600 88.738 M273.700 91.244 C 271.909 92.978,271.182 94.000,271.739 94.000 C 271.921 94.000,276.400 89.521,276.400 89.339 C 276.400 88.856,275.536 89.466,273.700 91.244 M269.467 95.867 C 269.084 96.249,269.138 96.800,269.557 96.800 C 269.754 96.800,270.018 96.530,270.145 96.200 C 270.379 95.590,269.953 95.381,269.467 95.867 M116.400 97.524 C 116.400 97.739,116.685 98.024,117.033 98.157 C 117.423 98.307,117.606 98.218,117.508 97.925 C 117.309 97.327,116.400 96.998,116.400 97.524 M121.600 102.786 C 121.600 103.164,122.865 104.000,123.436 104.000 C 123.594 104.000,123.398 103.640,123.000 103.200 C 122.224 102.343,121.600 102.158,121.600 102.786 M197.200 111.400 C 197.200 111.730,197.380 112.000,197.600 112.000 C 197.820 112.000,198.000 111.730,198.000 111.400 C 198.000 111.070,197.820 110.800,197.600 110.800 C 197.380 110.800,197.200 111.070,197.200 111.400 M48.800 112.400 C 48.800 112.620,49.149 112.800,49.576 112.800 C 50.003 112.800,50.464 112.620,50.600 112.400 C 50.740 112.173,50.404 112.000,49.824 112.000 C 49.261 112.000,48.800 112.180,48.800 112.400 M59.000 112.400 C 59.136 112.620,59.597 112.800,60.024 112.800 C 60.451 112.800,60.800 112.620,60.800 112.400 C 60.800 112.180,60.339 112.000,59.776 112.000 C 59.196 112.000,58.860 112.173,59.000 112.400 M74.800 116.824 C 74.800 117.057,74.965 117.145,75.166 117.021 C 75.367 116.897,75.612 117.021,75.711 117.298 C 75.810 117.574,76.045 117.655,76.234 117.478 C 76.422 117.301,76.312 116.989,75.988 116.784 C 75.209 116.292,74.800 116.305,74.800 116.824 M195.908 120.783 C 195.631 121.767,195.797 122.337,196.232 121.901 C 196.360 121.773,196.401 121.248,196.324 120.734 L 196.184 119.800 195.908 120.783 M24.162 123.258 C 23.404 124.112,23.405 124.114,24.300 123.644 C 24.795 123.384,25.200 122.998,25.200 122.786 C 25.200 122.218,25.009 122.305,24.162 123.258 M87.289 124.866 C 87.374 125.122,87.872 125.616,88.395 125.963 L 89.346 126.594 88.627 125.497 C 87.913 124.408,86.991 123.973,87.289 124.866 M153.081 130.200 C 153.448 130.970,153.889 131.600,154.061 131.600 C 154.232 131.600,154.001 130.970,153.547 130.200 C 153.093 129.430,152.652 128.800,152.567 128.800 C 152.482 128.800,152.713 129.430,153.081 130.200 M195.874 129.500 C 195.778 129.665,195.845 130.160,196.022 130.600 C 196.303 131.298,196.347 131.260,196.372 130.300 C 196.400 129.215,196.212 128.914,195.874 129.500 M92.400 129.933 C 92.400 130.330,93.270 131.200,93.667 131.200 C 93.837 131.200,93.877 130.944,93.757 130.631 C 93.518 130.010,92.400 129.435,92.400 129.933 M16.873 130.887 C 16.313 131.447,16.255 132.000,16.757 132.000 C 17.124 132.000,17.727 130.794,17.483 130.549 C 17.408 130.475,17.134 130.626,16.873 130.887 M159.467 147.867 C 159.036 148.297,159.159 153.200,159.600 153.200 C 159.829 153.200,160.000 152.000,160.000 150.400 C 160.000 147.585,159.956 147.377,159.467 147.867 M202.643 148.967 C 202.776 149.315,203.061 149.600,203.276 149.600 C 203.802 149.600,203.473 148.691,202.875 148.492 C 202.582 148.394,202.493 148.577,202.643 148.967 M10.825 150.420 C 10.849 151.717,10.874 151.742,11.238 150.832 C 11.494 150.191,11.485 149.725,11.212 149.452 C 10.929 149.169,10.808 149.473,10.825 150.420 M107.275 152.425 C 107.371 152.714,107.686 153.029,107.975 153.125 C 108.275 153.225,108.425 153.075,108.325 152.775 C 108.229 152.486,107.914 152.171,107.625 152.075 C 107.325 151.975,107.175 152.125,107.275 152.425 M206.000 152.324 C 206.000 152.539,206.285 152.824,206.633 152.957 C 207.023 153.107,207.206 153.018,207.108 152.725 C 206.909 152.127,206.000 151.798,206.000 152.324 M10.800 155.024 C 10.800 155.587,10.963 155.946,11.162 155.823 C 11.362 155.700,11.431 155.239,11.316 154.800 C 11.028 153.699,10.800 153.798,10.800 155.024 M350.229 156.229 C 349.546 156.911,349.399 157.600,349.936 157.600 C 350.120 157.600,350.477 157.150,350.727 156.600 C 351.253 155.445,351.115 155.342,350.229 156.229 M229.600 157.600 C 229.600 157.820,229.870 158.000,230.200 158.000 C 230.530 158.000,230.800 157.820,230.800 157.600 C 230.800 157.380,230.530 157.200,230.200 157.200 C 229.870 157.200,229.600 157.380,229.600 157.600 M347.467 160.267 C 346.981 160.753,347.190 161.179,347.800 160.945 C 348.130 160.818,348.400 160.554,348.400 160.357 C 348.400 159.938,347.849 159.884,347.467 160.267 M117.600 163.924 C 117.600 164.139,117.885 164.424,118.233 164.557 C 118.623 164.707,118.806 164.618,118.708 164.325 C 118.509 163.727,117.600 163.398,117.600 163.924 M154.012 164.784 C 153.688 164.989,153.578 165.301,153.766 165.478 C 153.955 165.655,154.190 165.574,154.289 165.298 C 154.388 165.021,154.633 164.897,154.834 165.021 C 155.035 165.145,155.200 165.057,155.200 164.824 C 155.200 164.305,154.791 164.292,154.012 164.784 M142.000 170.000 C 142.000 170.220,142.270 170.400,142.600 170.400 C 142.930 170.400,143.200 170.220,143.200 170.000 C 143.200 169.780,142.930 169.600,142.600 169.600 C 142.270 169.600,142.000 169.780,142.000 170.000 M16.006 170.671 C 16.018 171.284,16.755 172.178,17.026 171.907 C 17.174 171.759,17.004 171.347,16.648 170.990 C 16.291 170.634,16.003 170.491,16.006 170.671 M17.200 173.124 C 17.200 173.339,17.485 173.624,17.833 173.757 C 18.223 173.907,18.406 173.818,18.308 173.525 C 18.109 172.927,17.200 172.598,17.200 173.124 M330.701 174.737 C 329.207 175.638,329.295 176.136,330.797 175.281 C 331.456 174.907,331.996 174.465,331.997 174.300 C 332.001 173.937,332.056 173.919,330.701 174.737 M19.600 175.762 C 19.600 176.096,24.597 180.737,24.770 180.563 C 24.870 180.463,23.829 179.305,22.456 177.991 C 20.132 175.766,19.600 175.351,19.600 175.762 M328.012 175.984 C 327.688 176.189,327.527 176.461,327.654 176.588 C 327.969 176.903,329.200 176.401,329.200 175.957 C 329.200 175.501,328.760 175.511,328.012 175.984 M293.200 181.600 C 293.200 181.820,293.875 181.982,294.700 181.960 C 296.039 181.925,296.092 181.886,295.200 181.600 C 293.770 181.142,293.200 181.142,293.200 181.600 M304.800 181.600 C 303.908 181.886,303.961 181.925,305.300 181.960 C 306.125 181.982,306.800 181.820,306.800 181.600 C 306.800 181.142,306.230 181.142,304.800 181.600 M26.643 182.567 C 26.776 182.915,27.061 183.200,27.276 183.200 C 27.802 183.200,27.473 182.291,26.875 182.092 C 26.582 181.994,26.493 182.177,26.643 182.567 M262.441 190.214 C 261.759 190.992,261.200 191.720,261.200 191.833 C 261.200 192.191,263.018 190.681,263.741 189.723 C 264.843 188.262,263.814 188.651,262.441 190.214 M76.000 200.400 C 76.000 200.620,76.259 200.800,76.576 200.800 C 76.893 200.800,77.264 200.620,77.400 200.400 C 77.536 200.180,77.277 200.000,76.824 200.000 C 76.371 200.000,76.000 200.180,76.000 200.400 M90.800 203.957 C 90.800 204.154,91.085 204.424,91.433 204.557 C 92.293 204.887,92.400 204.867,92.400 204.376 C 92.400 204.143,92.220 204.064,92.000 204.200 C 91.780 204.336,91.600 204.257,91.600 204.024 C 91.600 203.791,91.420 203.600,91.200 203.600 C 90.980 203.600,90.800 203.761,90.800 203.957 M100.456 211.000 C 101.182 211.770,101.921 212.400,102.098 212.400 C 102.275 212.400,101.846 211.770,101.145 211.000 C 100.445 210.230,99.706 209.600,99.503 209.600 C 99.301 209.600,99.729 210.230,100.456 211.000 M104.400 215.829 C 104.400 215.954,104.670 216.327,105.000 216.657 C 105.651 217.308,105.733 217.211,105.357 216.233 C 105.129 215.638,104.400 215.330,104.400 215.829 M261.933 226.706 C 262.441 227.419,263.217 228.195,263.658 228.431 C 264.960 229.128,263.882 227.455,262.306 226.333 L 261.011 225.411 261.933 226.706 M265.600 229.924 C 265.600 230.139,265.885 230.424,266.233 230.557 C 266.623 230.707,266.806 230.618,266.708 230.325 C 266.509 229.727,265.600 229.398,265.600 229.924 M270.000 232.757 C 270.000 233.201,271.231 233.703,271.546 233.388 C 271.673 233.261,271.512 232.989,271.188 232.784 C 270.440 232.311,270.000 232.301,270.000 232.757 M62.800 237.200 C 62.800 237.710,64.810 237.710,65.600 237.200 C 66.039 236.916,65.745 236.811,64.500 236.806 C 63.565 236.803,62.800 236.980,62.800 237.200 M70.800 237.200 C 71.591 237.711,74.000 237.711,74.000 237.200 C 74.000 236.980,73.145 236.803,72.100 236.806 C 70.726 236.811,70.366 236.920,70.800 237.200 M101.612 237.184 C 101.288 237.389,101.178 237.701,101.366 237.878 C 101.555 238.055,101.790 237.974,101.889 237.698 C 101.988 237.421,102.233 237.297,102.434 237.421 C 102.635 237.545,102.800 237.457,102.800 237.224 C 102.800 236.705,102.391 236.692,101.612 237.184 M55.600 237.600 C 55.600 237.820,55.949 238.000,56.376 238.000 C 56.803 238.000,57.264 237.820,57.400 237.600 C 57.540 237.373,57.204 237.200,56.624 237.200 C 56.061 237.200,55.600 237.380,55.600 237.600 M282.400 237.600 C 282.400 237.820,282.670 238.000,283.000 238.000 C 283.330 238.000,283.600 237.820,283.600 237.600 C 283.600 237.380,283.330 237.200,283.000 237.200 C 282.670 237.200,282.400 237.380,282.400 237.600 M81.600 238.000 C 81.600 238.220,81.870 238.400,82.200 238.400 C 82.530 238.400,82.800 238.220,82.800 238.000 C 82.800 237.780,82.530 237.600,82.200 237.600 C 81.870 237.600,81.600 237.780,81.600 238.000 M296.600 239.600 C 296.736 239.820,297.197 240.000,297.624 240.000 C 298.051 240.000,298.400 239.820,298.400 239.600 C 298.400 239.380,297.939 239.200,297.376 239.200 C 296.796 239.200,296.460 239.373,296.600 239.600 M301.800 240.000 C 301.936 240.220,302.307 240.400,302.624 240.400 C 302.941 240.400,303.200 240.220,303.200 240.000 C 303.200 239.780,302.829 239.600,302.376 239.600 C 301.923 239.600,301.664 239.780,301.800 240.000 M14.499 260.896 C 14.590 261.169,14.425 261.632,14.132 261.925 C 13.475 262.582,13.444 263.200,14.067 263.200 C 14.323 263.200,14.422 263.089,14.286 262.952 C 14.150 262.816,14.300 262.443,14.619 262.124 C 15.300 261.443,15.390 260.400,14.767 260.400 C 14.528 260.400,14.408 260.623,14.499 260.896 M370.489 265.666 C 370.574 265.922,371.079 266.417,371.611 266.766 L 372.577 267.400 371.789 266.313 C 370.987 265.207,370.206 264.819,370.489 265.666 M233.600 273.200 C 233.600 273.420,234.590 273.600,235.800 273.600 C 237.010 273.600,238.000 273.420,238.000 273.200 C 238.000 272.980,237.010 272.800,235.800 272.800 C 234.590 272.800,233.600 272.980,233.600 273.200 M239.200 273.600 C 239.200 273.820,239.470 274.000,239.800 274.000 C 240.130 274.000,240.400 273.820,240.400 273.600 C 240.400 273.380,240.130 273.200,239.800 273.200 C 239.470 273.200,239.200 273.380,239.200 273.600 M131.800 274.400 C 131.664 274.620,131.934 274.800,132.400 274.800 C 132.866 274.800,133.136 274.620,133.000 274.400 C 132.864 274.180,132.594 274.000,132.400 274.000 C 132.206 274.000,131.936 274.180,131.800 274.400 M225.612 275.584 C 225.288 275.789,225.127 276.061,225.254 276.188 C 225.569 276.503,226.800 276.001,226.800 275.557 C 226.800 275.101,226.360 275.111,225.612 275.584 M123.412 276.780 C 123.265 277.018,122.977 277.109,122.772 276.983 C 122.568 276.856,122.400 276.943,122.400 277.176 C 122.400 277.695,122.809 277.708,123.588 277.216 C 123.912 277.011,124.065 276.732,123.928 276.595 C 123.792 276.459,123.560 276.542,123.412 276.780 M9.600 277.600 C 9.600 278.040,9.780 278.400,10.000 278.400 C 10.220 278.400,10.400 278.040,10.400 277.600 C 10.400 277.160,10.220 276.800,10.000 276.800 C 9.780 276.800,9.600 277.160,9.600 277.600 M221.088 279.046 C 220.270 279.841,219.600 280.672,219.600 280.892 C 219.600 281.356,222.607 278.847,222.947 278.100 C 223.361 277.191,222.598 277.579,221.088 279.046 M120.400 278.424 C 120.400 278.657,120.220 278.736,120.000 278.600 C 119.780 278.464,119.600 278.543,119.600 278.776 C 119.600 279.267,119.707 279.287,120.567 278.957 C 121.265 278.689,121.433 278.000,120.800 278.000 C 120.580 278.000,120.400 278.191,120.400 278.424 M147.800 279.200 C 148.432 279.860,149.130 280.400,149.350 280.400 C 149.570 280.400,149.232 279.860,148.600 279.200 C 147.968 278.540,147.270 278.000,147.050 278.000 C 146.830 278.000,147.168 278.540,147.800 279.200 M382.400 279.429 C 382.400 279.554,382.670 279.927,383.000 280.257 C 383.651 280.908,383.733 280.811,383.357 279.833 C 383.129 279.238,382.400 278.930,382.400 279.429 M115.600 281.200 C 115.283 281.396,115.156 281.689,115.318 281.852 C 115.481 282.014,115.823 281.937,116.080 281.680 C 116.684 281.076,116.347 280.738,115.600 281.200 M150.806 283.100 C 150.820 283.757,151.576 284.556,151.878 284.234 C 152.055 284.045,151.974 283.810,151.698 283.711 C 151.421 283.612,151.297 283.367,151.421 283.166 C 151.545 282.965,151.457 282.800,151.224 282.800 C 150.991 282.800,150.803 282.935,150.806 283.100 M9.600 286.976 C 9.600 287.539,9.780 288.000,10.000 288.000 C 10.220 288.000,10.400 287.651,10.400 287.224 C 10.400 286.797,10.220 286.336,10.000 286.200 C 9.773 286.060,9.600 286.396,9.600 286.976 M153.206 291.300 C 153.203 291.905,153.380 292.400,153.600 292.400 C 154.106 292.400,154.106 291.583,153.600 290.800 C 153.298 290.332,153.211 290.443,153.206 291.300 M153.200 295.776 C 153.200 297.002,153.428 297.101,153.716 296.000 C 153.831 295.561,153.762 295.100,153.562 294.977 C 153.363 294.854,153.200 295.213,153.200 295.776 M389.600 299.400 C 389.600 299.730,389.780 300.000,390.000 300.000 C 390.220 300.000,390.400 299.730,390.400 299.400 C 390.400 299.070,390.220 298.800,390.000 298.800 C 389.780 298.800,389.600 299.070,389.600 299.400 M97.678 302.424 C 97.203 303.185,97.226 303.214,97.982 302.810 C 98.432 302.569,98.800 302.198,98.800 301.986 C 98.800 301.331,98.219 301.558,97.678 302.424 M266.492 304.075 C 266.579 304.336,266.864 304.621,267.125 304.708 C 267.418 304.806,267.507 304.623,267.357 304.233 C 267.078 303.506,266.252 303.355,266.492 304.075 M94.911 305.700 C 93.933 306.965,93.885 307.279,94.750 306.738 C 95.636 306.185,96.204 305.200,95.636 305.200 C 95.450 305.200,95.124 305.425,94.911 305.700 M222.006 309.500 C 222.017 310.047,222.753 310.981,222.988 310.746 C 223.303 310.431,222.801 309.200,222.357 309.200 C 222.161 309.200,222.003 309.335,222.006 309.500 M389.600 310.400 C 389.600 310.840,389.780 311.200,390.000 311.200 C 390.220 311.200,390.400 310.840,390.400 310.400 C 390.400 309.960,390.220 309.600,390.000 309.600 C 389.780 309.600,389.600 309.960,389.600 310.400 M88.600 312.000 C 88.202 312.440,88.056 312.800,88.276 312.800 C 88.496 312.800,89.002 312.440,89.400 312.000 C 89.798 311.560,89.944 311.200,89.724 311.200 C 89.504 311.200,88.998 311.560,88.600 312.000 M272.800 311.502 C 272.800 311.722,273.070 312.126,273.400 312.400 C 273.735 312.678,274.000 312.721,274.000 312.498 C 274.000 312.278,273.730 311.874,273.400 311.600 C 273.065 311.322,272.800 311.279,272.800 311.502 M276.007 315.116 C 275.999 315.694,279.179 318.954,279.468 318.665 C 279.570 318.564,278.834 317.607,277.833 316.540 C 276.832 315.473,276.011 314.832,276.007 315.116 M75.612 320.784 C 75.288 320.989,75.127 321.261,75.254 321.388 C 75.569 321.703,76.800 321.201,76.800 320.757 C 76.800 320.301,76.360 320.311,75.612 320.784 M283.600 323.173 C 283.600 323.573,285.717 325.200,286.237 325.200 C 286.409 325.200,286.032 324.660,285.400 324.000 C 284.236 322.785,283.600 322.493,283.600 323.173 M50.800 326.000 C 50.800 326.220,51.250 326.400,51.800 326.400 C 52.350 326.400,52.800 326.220,52.800 326.000 C 52.800 325.780,52.350 325.600,51.800 325.600 C 51.250 325.600,50.800 325.780,50.800 326.000 M56.800 326.000 C 56.800 326.220,57.160 326.400,57.600 326.400 C 58.040 326.400,58.400 326.220,58.400 326.000 C 58.400 325.780,58.040 325.600,57.600 325.600 C 57.160 325.600,56.800 325.780,56.800 326.000 M384.449 326.652 C 383.783 328.114,384.074 328.195,384.889 326.774 C 385.260 326.128,385.420 325.600,385.246 325.600 C 385.071 325.600,384.713 326.073,384.449 326.652 M288.962 327.942 C 289.809 328.895,290.000 328.982,290.000 328.414 C 290.000 328.202,289.595 327.816,289.100 327.556 C 288.205 327.086,288.204 327.088,288.962 327.942 M305.600 339.900 C 305.600 340.069,305.960 340.432,306.400 340.707 C 306.840 340.982,307.200 341.069,307.200 340.900 C 307.200 340.731,306.840 340.368,306.400 340.093 C 305.960 339.818,305.600 339.731,305.600 339.900 M308.800 341.957 C 308.800 342.154,309.085 342.424,309.433 342.557 C 310.411 342.933,310.508 342.851,309.857 342.200 C 309.177 341.520,308.800 341.433,308.800 341.957 M143.200 350.800 C 143.200 351.547,143.307 351.653,143.680 351.280 C 144.053 350.907,144.053 350.693,143.680 350.320 C 143.307 349.947,143.200 350.053,143.200 350.800 M338.400 351.600 C 338.400 351.820,338.951 352.000,339.624 352.000 C 340.337 352.000,340.744 351.833,340.600 351.600 C 340.464 351.380,339.913 351.200,339.376 351.200 C 338.839 351.200,338.400 351.380,338.400 351.600 M343.400 351.600 C 343.253 351.838,343.729 352.000,344.576 352.000 C 345.359 352.000,346.000 351.820,346.000 351.600 C 346.000 351.380,345.471 351.200,344.824 351.200 C 344.177 351.200,343.536 351.380,343.400 351.600 M144.000 355.800 C 144.000 356.130,144.180 356.400,144.400 356.400 C 144.620 356.400,144.800 356.130,144.800 355.800 C 144.800 355.470,144.620 355.200,144.400 355.200 C 144.180 355.200,144.000 355.470,144.000 355.800 M147.090 363.900 C 147.369 364.638,148.198 365.600,148.553 365.600 C 148.668 365.600,148.456 365.061,148.081 364.403 C 147.344 363.107,146.658 362.760,147.090 363.900 M224.962 370.458 C 224.204 371.312,224.205 371.314,225.100 370.844 C 225.595 370.584,226.000 370.198,226.000 369.986 C 226.000 369.418,225.809 369.505,224.962 370.458 M153.019 372.094 C 153.888 373.025,154.645 373.865,154.700 373.961 C 154.755 374.056,154.923 374.010,155.074 373.859 C 155.388 373.546,152.445 370.400,151.838 370.400 C 151.618 370.400,152.149 371.162,153.019 372.094 M221.029 374.229 C 220.605 374.538,220.385 374.918,220.539 375.072 C 220.693 375.226,221.119 375.052,221.486 374.686 C 221.852 374.319,222.073 373.939,221.976 373.842 C 221.878 373.745,221.452 373.919,221.029 374.229 M179.200 384.000 C 179.200 384.220,179.470 384.400,179.800 384.400 C 180.130 384.400,180.400 384.220,180.400 384.000 C 180.400 383.780,180.130 383.600,179.800 383.600 C 179.470 383.600,179.200 383.780,179.200 384.000 M200.000 384.000 C 200.000 384.220,200.270 384.400,200.600 384.400 C 200.930 384.400,201.200 384.220,201.200 384.000 C 201.200 383.780,200.930 383.600,200.600 383.600 C 200.270 383.600,200.000 383.780,200.000 384.000 " stroke="none" fill="#49c176" fill-rule="evenodd"></path><path id="path1" d="M157.200 20.434 C 151.451 20.684,147.291 21.294,138.991 23.108 C 135.279 23.919,126.848 29.215,121.947 33.815 C 119.193 36.399,114.800 41.326,114.800 41.830 C 114.800 41.953,114.375 42.626,113.856 43.327 C 112.191 45.572,110.057 49.931,108.966 53.312 C 108.383 55.120,107.765 56.960,107.594 57.400 C 106.498 60.209,106.071 69.685,106.830 74.354 C 109.083 88.207,116.571 98.821,130.635 108.101 C 144.495 117.244,152.462 125.399,156.669 134.747 C 157.226 135.986,157.847 137.360,158.047 137.800 C 161.136 144.577,160.974 155.369,157.684 161.969 L 156.173 165.000 151.263 167.458 C 148.562 168.810,145.868 170.009,145.276 170.123 C 144.684 170.236,142.940 170.615,141.400 170.965 C 136.892 171.988,132.210 171.697,126.931 170.066 C 123.515 169.010,116.076 163.848,113.200 160.537 C 107.702 154.209,106.281 152.266,104.217 148.257 C 103.294 146.466,102.099 144.280,101.561 143.400 C 101.022 142.520,100.353 141.350,100.073 140.800 C 96.448 133.683,85.100 122.804,77.000 118.680 C 70.511 115.376,70.269 115.295,60.494 113.171 C 58.179 112.668,51.345 112.702,48.731 113.230 C 29.568 117.101,16.384 127.781,13.217 142.000 C 12.948 143.210,12.552 144.830,12.338 145.600 C 11.862 147.311,12.118 158.389,12.684 160.600 C 14.622 168.161,20.409 176.565,27.000 181.387 C 27.880 182.031,28.690 182.681,28.800 182.832 C 29.847 184.270,41.916 190.720,47.400 192.772 C 48.720 193.266,50.250 193.858,50.800 194.087 C 51.350 194.316,52.430 194.670,53.200 194.874 C 53.970 195.078,55.140 195.398,55.800 195.585 C 63.207 197.686,69.900 198.977,75.600 199.404 C 88.151 200.346,98.378 205.597,104.514 214.253 C 115.910 230.327,106.155 243.010,85.200 239.365 C 74.568 237.516,60.820 237.277,52.600 238.799 C 47.545 239.735,44.142 240.496,43.505 240.833 C 43.123 241.035,42.455 241.200,42.019 241.200 C 41.583 241.200,40.546 241.495,39.714 241.855 C 38.881 242.216,37.840 242.647,37.400 242.814 C 25.925 247.162,17.024 255.997,13.206 266.827 C 9.923 276.136,10.007 290.681,13.392 299.000 C 13.660 299.660,14.126 300.830,14.427 301.600 C 16.473 306.836,24.633 315.053,31.800 319.095 C 41.034 324.303,53.419 326.541,62.275 324.604 C 63.774 324.276,65.990 323.796,67.200 323.537 C 68.410 323.278,69.580 322.947,69.800 322.802 C 70.020 322.657,71.100 322.205,72.200 321.799 C 83.046 317.792,94.901 307.088,103.410 293.617 C 121.296 265.304,156.895 267.819,153.965 297.189 C 153.581 301.045,153.465 301.577,152.085 305.800 C 151.405 307.884,150.899 309.348,149.597 313.000 C 141.469 335.804,142.173 357.508,151.400 368.600 C 156.275 374.461,160.363 377.171,169.800 380.801 C 178.488 384.143,194.775 384.976,203.600 382.530 C 207.787 381.370,208.613 381.078,211.555 379.726 C 229.536 371.460,236.460 354.470,230.924 332.200 C 230.377 330.000,229.779 327.840,229.594 327.400 C 229.408 326.960,228.878 325.541,228.414 324.246 C 226.633 319.273,223.485 312.991,219.517 306.493 C 214.655 298.531,213.326 294.629,214.331 291.274 C 214.589 290.412,214.800 289.351,214.800 288.915 C 214.800 288.148,215.121 287.357,216.939 283.639 C 221.979 273.335,236.663 269.389,246.519 275.691 C 250.126 277.997,255.600 283.824,255.600 285.357 C 255.600 285.761,260.689 293.914,263.491 298.000 C 275.135 314.980,293.220 332.291,307.800 340.416 C 312.933 343.276,320.057 346.561,323.400 347.610 C 324.280 347.886,325.450 348.254,326.000 348.429 C 326.945 348.728,329.389 349.296,334.400 350.382 C 337.004 350.946,348.707 350.746,351.909 350.082 C 363.051 347.773,375.113 340.271,380.337 332.400 C 381.141 331.190,381.908 330.110,382.042 330.000 C 382.921 329.281,386.714 320.821,387.602 317.600 C 387.875 316.610,388.363 314.938,388.686 313.885 C 389.546 311.085,389.482 300.052,388.584 296.034 C 385.363 281.639,375.737 268.862,360.797 259.152 C 358.835 257.877,357.309 257.010,351.400 253.815 C 347.748 251.840,334.621 246.857,330.800 245.995 C 329.350 245.668,323.653 244.251,321.200 243.608 C 320.430 243.407,319.080 243.128,318.200 242.990 C 317.320 242.853,315.070 242.472,313.200 242.144 C 308.783 241.371,304.576 240.883,298.400 240.426 C 274.959 238.691,260.878 231.409,256.194 218.600 C 255.791 217.500,255.333 216.420,255.174 216.200 C 254.336 215.037,254.026 206.758,254.696 203.400 C 257.531 189.177,272.309 179.363,288.993 180.623 C 297.910 181.296,310.075 180.998,314.000 180.010 C 314.770 179.816,316.660 179.360,318.200 178.996 C 319.740 178.632,321.360 178.188,321.800 178.008 C 322.240 177.828,323.230 177.456,324.000 177.180 C 343.816 170.098,356.800 151.314,356.800 129.731 C 356.800 125.891,355.345 116.526,354.387 114.200 C 354.205 113.760,353.680 112.261,353.218 110.869 C 346.168 89.595,324.599 74.733,304.300 77.161 C 287.816 79.133,272.688 90.045,263.764 106.400 C 263.344 107.170,262.865 107.860,262.700 107.933 C 262.535 108.007,262.400 108.227,262.400 108.423 C 262.400 108.619,261.778 110.057,261.017 111.620 C 260.257 113.183,259.513 114.853,259.365 115.331 C 259.217 115.809,258.780 116.920,258.395 117.800 C 256.929 121.149,255.045 128.009,254.001 133.800 C 252.222 143.672,246.400 151.357,237.133 156.066 C 234.491 157.408,233.415 157.738,228.800 158.614 C 222.462 159.818,215.628 158.810,210.400 155.899 C 204.546 152.639,199.215 146.364,197.572 140.800 C 195.466 133.667,195.461 133.636,195.458 125.800 C 195.456 121.077,195.651 117.292,195.973 115.800 C 196.257 114.480,196.642 112.590,196.827 111.600 C 197.588 107.529,198.016 105.946,199.802 100.600 C 200.831 97.520,201.817 94.640,201.994 94.200 C 202.266 93.522,203.755 87.107,204.594 83.000 C 205.755 77.312,206.310 63.964,205.624 58.200 C 205.134 54.079,204.781 52.343,203.780 49.146 C 203.461 48.127,203.200 47.085,203.200 46.831 C 203.200 45.397,198.862 37.179,196.669 34.458 C 188.144 23.880,176.134 19.613,157.200 20.434 " stroke="none" fill="#0cc454" fill-rule="evenodd"></path><path id="path2" d="M159.800 19.600 C 159.251 19.836,159.908 19.953,161.900 19.972 C 163.585 19.988,164.800 19.832,164.800 19.600 C 164.800 19.117,160.924 19.117,159.800 19.600 M152.400 20.000 C 152.400 20.220,152.850 20.400,153.400 20.400 C 153.950 20.400,154.400 20.220,154.400 20.000 C 154.400 19.780,153.950 19.600,153.400 19.600 C 152.850 19.600,152.400 19.780,152.400 20.000 M168.800 20.000 C 168.345 20.294,168.514 20.389,169.500 20.394 C 170.215 20.397,170.800 20.220,170.800 20.000 C 170.800 19.492,169.586 19.492,168.800 20.000 M143.400 21.600 C 143.264 21.820,143.423 22.000,143.753 22.000 C 144.083 22.000,144.464 21.820,144.600 21.600 C 144.736 21.380,144.577 21.200,144.247 21.200 C 143.917 21.200,143.536 21.380,143.400 21.600 M136.576 23.430 C 136.149 23.776,136.039 23.937,136.331 23.787 C 136.624 23.637,137.344 23.369,137.931 23.191 C 138.789 22.933,138.837 22.862,138.176 22.834 C 137.724 22.815,137.004 23.083,136.576 23.430 M186.612 25.180 C 186.366 25.579,187.926 26.608,188.264 26.269 C 188.372 26.161,188.084 25.954,187.624 25.808 C 187.165 25.662,186.892 25.375,187.018 25.171 C 187.144 24.967,187.157 24.800,187.047 24.800 C 186.937 24.800,186.742 24.971,186.612 25.180 M126.988 28.420 C 126.607 29.035,127.128 29.432,127.642 28.918 C 127.929 28.631,127.936 28.407,127.662 28.239 C 127.439 28.100,127.135 28.182,126.988 28.420 M123.341 31.597 C 122.500 31.937,121.782 32.718,122.060 32.991 C 122.137 33.066,122.740 32.695,123.400 32.166 C 124.687 31.134,124.679 31.057,123.341 31.597 M196.035 33.354 C 196.535 33.929,197.024 34.400,197.121 34.400 C 197.480 34.400,196.114 32.638,195.629 32.476 C 195.352 32.384,195.535 32.779,196.035 33.354 M120.175 34.900 L 119.000 36.200 120.300 35.025 C 121.512 33.930,121.784 33.600,121.475 33.600 C 121.406 33.600,120.821 34.185,120.175 34.900 M198.185 36.300 C 198.802 37.235,199.383 38.000,199.476 38.000 C 199.764 38.000,198.233 35.566,197.632 35.069 C 197.320 34.811,197.568 35.365,198.185 36.300 M109.830 48.852 C 109.407 49.263,109.249 49.600,109.481 49.600 C 109.943 49.600,111.009 48.465,110.757 48.242 C 110.671 48.166,110.254 48.440,109.830 48.852 M205.606 57.276 C 205.618 58.281,206.387 59.108,206.394 58.124 C 206.397 57.642,206.220 57.136,206.000 57.000 C 205.780 56.864,205.603 56.988,205.606 57.276 M106.292 61.042 C 106.131 61.202,106.000 61.609,106.000 61.947 C 106.000 62.397,106.118 62.442,106.445 62.115 C 106.690 61.870,106.821 61.463,106.737 61.210 C 106.652 60.957,106.452 60.881,106.292 61.042 M206.550 66.600 C 206.551 69.020,206.616 69.958,206.696 68.685 C 206.776 67.412,206.775 65.432,206.694 64.285 C 206.614 63.138,206.549 64.180,206.550 66.600 M105.731 67.800 C 105.733 69.340,105.805 69.921,105.892 69.091 C 105.979 68.261,105.977 67.001,105.889 66.291 C 105.800 65.581,105.729 66.260,105.731 67.800 M205.873 75.353 C 205.723 75.745,205.611 76.366,205.625 76.733 C 205.642 77.175,205.781 77.074,206.037 76.434 C 206.249 75.903,206.361 75.282,206.285 75.054 C 206.209 74.827,206.024 74.961,205.873 75.353 M307.700 76.676 C 308.085 76.776,308.715 76.776,309.100 76.676 C 309.485 76.575,309.170 76.493,308.400 76.493 C 307.630 76.493,307.315 76.575,307.700 76.676 M312.600 76.800 C 312.736 77.020,313.117 77.200,313.447 77.200 C 313.777 77.200,313.936 77.020,313.800 76.800 C 313.664 76.580,313.283 76.400,312.953 76.400 C 312.623 76.400,312.464 76.580,312.600 76.800 M299.600 77.200 C 299.600 77.420,299.870 77.600,300.200 77.600 C 300.530 77.600,300.800 77.420,300.800 77.200 C 300.800 76.980,300.530 76.800,300.200 76.800 C 299.870 76.800,299.600 76.980,299.600 77.200 M316.000 77.200 C 316.000 77.420,316.270 77.600,316.600 77.600 C 316.930 77.600,317.200 77.420,317.200 77.200 C 317.200 76.980,316.930 76.800,316.600 76.800 C 316.270 76.800,316.000 76.980,316.000 77.200 M319.600 78.227 C 321.383 78.927,322.555 79.195,322.178 78.818 C 321.957 78.597,321.151 78.320,320.388 78.204 C 319.624 78.087,319.270 78.098,319.600 78.227 M205.479 79.357 C 205.315 79.774,205.275 80.209,205.391 80.324 C 205.755 80.689,206.076 80.091,205.924 79.331 C 205.783 78.635,205.762 78.636,205.479 79.357 M203.535 88.801 C 203.204 90.341,203.065 91.600,203.226 91.600 C 203.535 91.600,204.547 86.413,204.288 86.154 C 204.204 86.071,203.865 87.262,203.535 88.801 M279.900 86.276 C 279.515 86.376,279.200 86.625,279.200 86.829 C 279.200 87.394,279.843 87.272,280.400 86.600 C 280.674 86.270,280.831 86.021,280.749 86.046 C 280.667 86.072,280.285 86.175,279.900 86.276 M278.196 88.007 C 278.058 88.230,277.798 88.322,277.618 88.211 C 277.438 88.100,277.065 88.281,276.788 88.614 C 275.944 89.632,276.562 89.621,277.816 88.597 C 278.467 88.064,278.876 87.622,278.724 87.614 C 278.572 87.606,278.334 87.783,278.196 88.007 M341.459 91.100 C 341.870 91.485,342.599 92.233,343.077 92.763 C 343.757 93.514,343.925 93.574,343.846 93.036 C 343.791 92.656,343.217 91.914,342.573 91.387 C 341.221 90.282,340.344 90.056,341.459 91.100 M112.302 91.076 C 112.206 91.254,112.458 91.715,112.863 92.100 C 113.722 92.916,113.823 92.527,113.026 91.476 C 112.724 91.078,112.398 90.898,112.302 91.076 M114.642 94.709 C 115.105 95.089,115.590 95.703,115.719 96.074 C 115.849 96.444,116.370 96.963,116.877 97.226 C 117.769 97.688,117.777 97.679,117.091 96.952 C 116.701 96.538,116.013 95.705,115.562 95.100 C 115.111 94.495,114.530 94.004,114.271 94.009 C 114.012 94.014,114.179 94.329,114.642 94.709 M271.150 94.200 C 271.123 94.310,271.075 94.535,271.044 94.700 C 271.013 94.865,270.828 95.253,270.632 95.562 C 270.388 95.947,270.421 96.034,270.736 95.840 C 271.443 95.402,272.113 94.000,271.614 94.000 C 271.386 94.000,271.178 94.090,271.150 94.200 M344.461 94.618 C 344.824 94.989,345.340 95.220,345.606 95.131 C 345.873 95.042,345.575 94.739,344.945 94.456 C 343.873 93.976,343.842 93.986,344.461 94.618 M346.438 96.800 C 346.420 97.679,347.466 98.940,347.785 98.424 C 347.929 98.191,347.851 98.000,347.611 98.000 C 347.371 98.000,347.011 97.595,346.812 97.100 C 346.613 96.605,346.445 96.470,346.438 96.800 M199.023 103.700 C 198.939 103.975,198.670 104.826,198.424 105.591 C 198.179 106.356,198.146 106.806,198.352 106.591 C 198.766 106.158,199.641 103.200,199.355 103.200 C 199.256 103.200,199.106 103.425,199.023 103.700 M125.156 105.100 C 125.416 105.595,125.922 106.000,126.281 106.000 C 126.640 106.000,126.858 105.953,126.767 105.896 C 126.675 105.838,126.169 105.433,125.642 104.996 L 124.684 104.200 125.156 105.100 M351.446 106.111 C 351.583 106.502,352.078 107.019,352.547 107.260 C 353.277 107.635,353.316 107.619,352.818 107.149 C 352.498 106.847,352.003 106.330,351.717 106.000 C 351.265 105.478,351.230 105.492,351.446 106.111 M261.494 108.900 C 261.388 109.175,261.309 109.490,261.319 109.600 C 261.328 109.710,261.115 110.250,260.846 110.800 C 260.391 111.729,260.399 111.746,260.965 111.041 C 261.300 110.624,261.480 110.129,261.364 109.941 C 261.248 109.753,261.324 109.600,261.534 109.600 C 261.743 109.600,262.018 109.330,262.145 109.000 C 262.271 108.670,262.220 108.400,262.030 108.400 C 261.841 108.400,261.599 108.625,261.494 108.900 M51.400 112.400 C 51.242 112.655,52.470 112.800,54.800 112.800 C 57.130 112.800,58.358 112.655,58.200 112.400 C 58.064 112.180,56.534 112.000,54.800 112.000 C 53.066 112.000,51.536 112.180,51.400 112.400 M62.400 113.356 C 62.400 113.442,63.017 113.585,63.772 113.673 C 64.527 113.761,65.056 113.690,64.948 113.516 C 64.755 113.203,62.400 113.055,62.400 113.356 M36.400 116.059 C 35.850 116.283,35.053 116.538,34.629 116.624 C 33.814 116.790,32.935 117.486,33.227 117.734 C 33.322 117.814,34.480 117.376,35.800 116.760 C 38.087 115.692,38.511 115.197,36.400 116.059 M195.822 119.022 C 195.672 119.825,195.628 120.562,195.726 120.660 C 195.824 120.757,196.027 120.181,196.178 119.378 C 196.328 118.575,196.372 117.838,196.274 117.740 C 196.176 117.643,195.973 118.219,195.822 119.022 M143.400 118.463 C 143.840 118.704,145.100 119.734,146.200 120.751 L 148.200 122.600 146.014 120.300 C 144.811 119.035,143.551 118.005,143.214 118.012 C 142.769 118.021,142.821 118.145,143.400 118.463 M84.000 122.329 C 84.000 122.490,85.122 123.607,86.493 124.811 C 88.644 126.701,88.822 126.795,87.793 125.500 C 87.137 124.675,86.457 124.000,86.282 124.000 C 86.107 124.000,85.522 123.558,84.982 123.018 C 84.442 122.478,84.000 122.168,84.000 122.329 M195.443 124.633 C 195.069 125.607,195.155 127.125,195.600 127.400 C 195.844 127.551,196.000 126.937,196.000 125.824 C 196.000 123.908,195.847 123.580,195.443 124.633 M21.271 126.229 C 20.980 126.558,20.800 126.985,20.871 127.177 C 20.942 127.369,21.323 127.093,21.719 126.563 C 22.497 125.520,22.136 125.250,21.271 126.229 M356.950 130.200 C 356.951 132.620,357.016 133.558,357.096 132.285 C 357.176 131.012,357.175 129.032,357.094 127.885 C 357.014 126.738,356.949 127.780,356.950 130.200 M195.656 131.000 C 195.656 131.440,195.811 132.160,196.000 132.600 L 196.344 133.400 196.344 132.600 C 196.344 132.160,196.189 131.440,196.000 131.000 L 195.656 130.200 195.656 131.000 M13.641 138.500 C 13.269 139.488,12.694 142.444,12.999 141.800 C 13.104 141.580,13.444 140.545,13.755 139.500 C 14.333 137.561,14.255 136.872,13.641 138.500 M103.433 146.000 C 103.730 147.114,103.919 147.414,104.167 147.166 C 104.259 147.074,104.072 146.549,103.751 145.999 L 103.167 145.000 103.433 146.000 M354.155 146.700 C 354.034 147.085,353.773 147.805,353.576 148.300 C 353.379 148.795,353.371 149.200,353.560 149.200 C 353.748 149.200,354.085 148.480,354.309 147.600 C 354.707 146.030,354.587 145.325,354.155 146.700 M245.285 149.256 C 244.347 150.167,243.680 151.013,243.804 151.137 C 243.927 151.260,244.874 150.515,245.909 149.481 C 246.943 148.446,247.610 147.600,247.391 147.600 C 247.171 147.600,246.224 148.345,245.285 149.256 M105.267 149.787 C 105.515 150.331,105.907 150.658,106.139 150.514 C 106.421 150.340,106.402 150.201,106.080 150.093 C 105.816 150.005,105.600 149.678,105.600 149.367 C 105.600 149.055,105.424 148.800,105.209 148.800 C 104.969 148.800,104.992 149.183,105.267 149.787 M160.093 151.600 C 160.093 152.370,160.175 152.685,160.276 152.300 C 160.376 151.915,160.376 151.285,160.276 150.900 C 160.175 150.515,160.093 150.830,160.093 151.600 M204.990 151.848 C 205.347 152.204,205.738 152.396,205.859 152.274 C 206.215 151.918,205.606 151.200,204.948 151.200 C 204.425 151.200,204.431 151.288,204.990 151.848 M111.916 158.600 C 112.359 159.260,113.229 160.250,113.849 160.800 C 114.469 161.350,114.758 161.513,114.491 161.163 C 114.225 160.813,114.140 160.393,114.303 160.230 C 114.467 160.067,114.397 159.993,114.149 160.067 C 113.901 160.140,113.116 159.570,112.404 158.800 C 111.238 157.538,111.190 157.519,111.916 158.600 M217.000 158.000 C 216.860 158.226,217.188 158.400,217.753 158.400 C 218.303 158.400,218.864 158.220,219.000 158.000 C 219.140 157.774,218.812 157.600,218.247 157.600 C 217.697 157.600,217.136 157.780,217.000 158.000 M228.400 158.000 C 228.730 158.213,229.360 158.388,229.800 158.388 C 230.462 158.388,230.497 158.321,230.000 158.000 C 229.670 157.787,229.040 157.612,228.600 157.612 C 227.938 157.612,227.903 157.679,228.400 158.000 M222.177 158.842 C 223.264 159.015,224.794 159.015,225.577 158.843 C 226.657 158.606,226.181 158.531,223.600 158.530 C 220.547 158.529,220.402 158.561,222.177 158.842 M342.616 165.717 C 341.305 167.083,340.270 168.245,340.316 168.300 C 340.470 168.484,340.799 168.403,340.900 168.156 C 341.190 167.449,345.053 163.811,345.362 163.955 C 345.561 164.048,345.595 163.916,345.438 163.662 C 345.073 163.070,345.355 162.865,342.616 165.717 M151.400 166.916 C 150.605 167.692,150.608 167.693,151.900 167.038 C 153.306 166.326,153.477 166.133,152.700 166.134 C 152.425 166.135,151.840 166.486,151.400 166.916 M123.042 167.492 C 122.912 167.622,123.176 167.988,123.628 168.305 C 124.081 168.622,124.560 168.773,124.693 168.641 C 124.825 168.508,124.713 168.400,124.443 168.400 C 124.173 168.400,124.052 168.239,124.174 168.042 C 124.427 167.632,123.400 167.133,123.042 167.492 M335.800 171.435 L 334.600 172.466 335.900 171.606 C 336.615 171.133,337.200 170.668,337.200 170.573 C 337.200 170.273,337.031 170.378,335.800 171.435 M134.905 171.487 C 135.514 171.579,136.414 171.577,136.905 171.482 C 137.397 171.387,136.900 171.311,135.800 171.314 C 134.700 171.317,134.297 171.395,134.905 171.487 M18.806 173.833 C 18.815 174.358,19.210 174.819,21.008 176.398 L 22.600 177.796 20.800 175.806 C 19.810 174.711,18.955 173.737,18.900 173.641 C 18.845 173.545,18.803 173.632,18.806 173.833 M24.181 179.600 C 25.047 180.590,26.119 181.543,26.563 181.719 C 27.007 181.894,27.287 181.972,27.185 181.891 C 27.083 181.811,26.012 180.858,24.804 179.773 L 22.607 177.800 24.181 179.600 M311.600 180.800 C 311.600 181.020,311.870 181.200,312.200 181.200 C 312.530 181.200,312.800 181.020,312.800 180.800 C 312.800 180.580,312.530 180.400,312.200 180.400 C 311.870 180.400,311.600 180.580,311.600 180.800 M281.400 181.200 C 281.085 181.709,282.012 181.709,282.800 181.200 C 283.288 180.885,283.236 180.811,282.524 180.806 C 282.042 180.803,281.536 180.980,281.400 181.200 M290.400 181.200 C 290.730 181.413,291.360 181.588,291.800 181.588 C 292.462 181.588,292.497 181.521,292.000 181.200 C 291.670 180.987,291.040 180.812,290.600 180.812 C 289.938 180.812,289.903 180.879,290.400 181.200 M307.800 181.200 C 307.485 181.709,308.412 181.709,309.200 181.200 C 309.688 180.885,309.636 180.811,308.924 180.806 C 308.442 180.803,307.936 180.980,307.800 181.200 M278.600 181.600 C 277.829 181.931,277.831 181.945,278.676 181.972 C 279.158 181.987,279.664 181.820,279.800 181.600 C 280.092 181.127,279.701 181.127,278.600 181.600 M295.800 181.640 C 297.395 181.993,302.823 182.015,303.677 181.672 C 304.049 181.522,302.159 181.394,299.477 181.387 C 296.795 181.380,295.140 181.494,295.800 181.640 M270.300 184.229 C 268.805 185.040,268.896 185.378,270.400 184.600 C 271.060 184.259,271.600 183.894,271.600 183.790 C 271.600 183.532,271.557 183.547,270.300 184.229 M33.203 186.277 C 33.206 186.606,35.245 187.688,35.459 187.475 C 35.523 187.411,35.041 187.042,34.388 186.656 C 33.734 186.270,33.201 186.100,33.203 186.277 M261.375 190.900 L 260.200 192.200 261.500 191.025 C 262.215 190.379,262.800 189.794,262.800 189.725 C 262.800 189.416,262.470 189.688,261.375 190.900 M58.216 196.826 C 58.312 196.981,58.923 197.186,59.574 197.282 C 60.225 197.377,60.679 197.329,60.584 197.174 C 60.488 197.019,59.877 196.814,59.226 196.718 C 58.575 196.623,58.121 196.671,58.216 196.826 M85.406 201.610 C 85.506 201.772,86.035 201.990,86.582 202.094 C 87.129 202.199,87.494 202.152,87.394 201.990 C 87.294 201.828,86.765 201.610,86.218 201.506 C 85.671 201.401,85.306 201.448,85.406 201.610 M254.800 203.353 C 254.800 203.683,254.980 204.064,255.200 204.200 C 255.420 204.336,255.600 204.177,255.600 203.847 C 255.600 203.517,255.420 203.136,255.200 203.000 C 254.980 202.864,254.800 203.023,254.800 203.353 M97.648 207.928 C 97.947 208.408,98.363 208.800,98.570 208.800 C 98.778 208.800,99.394 209.205,99.939 209.700 C 100.483 210.195,100.807 210.388,100.659 210.129 C 100.510 209.870,99.650 209.073,98.746 208.357 C 97.480 207.355,97.228 207.256,97.648 207.928 M254.493 210.400 C 254.493 211.170,254.575 211.485,254.676 211.100 C 254.776 210.715,254.776 210.085,254.676 209.700 C 254.575 209.315,254.493 209.630,254.493 210.400 M102.634 212.700 C 103.254 213.990,103.600 214.328,103.600 213.644 C 103.600 213.449,103.242 212.864,102.804 212.344 L 102.008 211.400 102.634 212.700 M254.800 213.800 C 254.800 214.130,254.980 214.400,255.200 214.400 C 255.420 214.400,255.600 214.130,255.600 213.800 C 255.600 213.470,255.420 213.200,255.200 213.200 C 254.980 213.200,254.800 213.470,254.800 213.800 M260.000 224.527 C 260.000 225.274,260.652 225.762,260.968 225.252 C 261.091 225.053,260.923 224.668,260.596 224.396 C 260.111 223.994,260.000 224.019,260.000 224.527 M108.527 227.200 C 108.507 229.941,108.536 230.055,108.871 228.526 C 109.081 227.566,109.090 226.288,108.893 225.526 C 108.610 224.438,108.545 224.738,108.527 227.200 M264.426 229.431 C 264.954 230.068,265.600 230.186,265.600 229.647 C 265.600 229.452,265.230 229.196,264.777 229.078 C 264.102 228.902,264.039 228.965,264.426 229.431 M106.511 234.100 C 105.729 235.111,105.463 235.732,105.936 235.440 C 106.410 235.147,107.357 233.600,107.063 233.600 C 106.972 233.600,106.724 233.825,106.511 234.100 M58.600 237.600 C 58.460 237.826,58.788 238.000,59.353 238.000 C 59.903 238.000,60.464 237.820,60.600 237.600 C 60.740 237.374,60.412 237.200,59.847 237.200 C 59.297 237.200,58.736 237.380,58.600 237.600 M66.905 237.487 C 67.514 237.579,68.414 237.577,68.905 237.482 C 69.397 237.387,68.900 237.311,67.800 237.314 C 66.700 237.317,66.297 237.395,66.905 237.487 M76.000 237.600 C 76.000 237.820,76.450 238.000,77.000 238.000 C 77.550 238.000,78.000 237.820,78.000 237.600 C 78.000 237.380,77.550 237.200,77.000 237.200 C 76.450 237.200,76.000 237.380,76.000 237.600 M53.600 238.000 C 53.600 238.220,54.275 238.387,55.100 238.372 C 56.303 238.349,56.442 238.276,55.800 238.000 C 54.688 237.522,53.600 237.522,53.600 238.000 M283.200 238.000 C 282.715 238.314,282.772 238.389,283.500 238.394 C 283.995 238.397,284.400 238.220,284.400 238.000 C 284.400 237.499,283.976 237.499,283.200 238.000 M47.100 239.087 C 46.495 239.178,46.000 239.407,46.000 239.594 C 46.000 239.880,47.896 239.552,49.400 239.008 C 49.912 238.823,48.530 238.870,47.100 239.087 M96.800 239.218 C 96.362 239.515,96.524 239.552,97.400 239.356 C 98.871 239.027,99.190 238.798,98.167 238.806 C 97.745 238.809,97.130 238.995,96.800 239.218 M288.033 238.943 C 288.125 239.022,288.920 239.197,289.800 239.332 C 290.890 239.499,291.209 239.455,290.800 239.195 C 290.253 238.846,287.645 238.609,288.033 238.943 M89.404 239.606 C 89.707 240.096,93.997 240.116,94.762 239.632 C 95.121 239.405,94.209 239.264,92.243 239.244 C 90.314 239.224,89.251 239.360,89.404 239.606 M293.200 239.600 C 293.530 239.813,294.250 239.978,294.800 239.966 C 295.716 239.946,295.733 239.915,295.000 239.600 C 293.816 239.091,292.413 239.091,293.200 239.600 M299.000 240.000 C 299.136 240.220,299.687 240.400,300.224 240.400 C 300.761 240.400,301.200 240.220,301.200 240.000 C 301.200 239.780,300.649 239.600,299.976 239.600 C 299.263 239.600,298.856 239.767,299.000 240.000 M304.000 240.400 C 304.000 240.620,304.259 240.800,304.576 240.800 C 304.893 240.800,305.264 240.620,305.400 240.400 C 305.536 240.180,305.277 240.000,304.824 240.000 C 304.371 240.000,304.000 240.180,304.000 240.400 M306.882 240.741 C 306.550 240.951,306.867 241.088,307.767 241.122 C 308.538 241.151,309.276 241.000,309.408 240.787 C 309.698 240.317,307.611 240.279,306.882 240.741 M319.200 242.800 C 319.200 243.020,319.470 243.200,319.800 243.200 C 320.130 243.200,320.400 243.020,320.400 242.800 C 320.400 242.580,320.130 242.400,319.800 242.400 C 319.470 242.400,319.200 242.580,319.200 242.800 M321.807 243.188 C 321.528 243.640,323.320 244.177,324.083 243.871 C 324.367 243.757,324.094 243.649,323.476 243.632 C 322.835 243.614,322.459 243.428,322.600 243.200 C 322.736 242.980,322.667 242.800,322.447 242.800 C 322.227 242.800,321.939 242.975,321.807 243.188 M21.400 252.186 C 20.520 253.102,19.740 254.109,19.667 254.425 C 19.593 254.741,19.608 254.910,19.698 254.800 C 19.789 254.690,20.641 253.741,21.590 252.692 C 23.735 250.322,23.582 249.915,21.400 252.186 M352.000 253.811 C 352.000 253.903,352.540 254.259,353.200 254.600 C 353.860 254.941,354.400 255.054,354.400 254.849 C 354.400 254.645,353.860 254.290,353.200 254.060 C 352.540 253.830,352.000 253.718,352.000 253.811 M366.800 262.940 C 366.800 263.017,367.921 264.052,369.291 265.240 C 371.566 267.212,371.684 267.270,370.644 265.900 C 370.017 265.075,369.258 264.400,368.956 264.400 C 368.654 264.400,368.182 264.040,367.907 263.600 C 367.478 262.912,366.800 262.508,366.800 262.940 M375.600 271.313 C 375.600 271.389,376.140 271.968,376.800 272.600 C 377.460 273.232,378.000 273.570,378.000 273.350 C 378.000 273.130,377.460 272.551,376.800 272.063 C 376.140 271.575,375.600 271.238,375.600 271.313 M134.307 274.290 C 135.026 274.379,136.106 274.377,136.707 274.286 C 137.308 274.195,136.720 274.122,135.400 274.124 C 134.080 274.126,133.588 274.201,134.307 274.290 M243.200 274.179 C 243.200 274.289,243.740 274.659,244.400 275.000 C 245.060 275.341,245.600 275.531,245.600 275.421 C 245.600 275.311,245.060 274.941,244.400 274.600 C 243.740 274.259,243.200 274.069,243.200 274.179 M128.000 274.800 C 127.176 275.064,127.141 275.126,127.800 275.154 C 128.240 275.173,128.870 275.013,129.200 274.800 C 129.901 274.347,129.414 274.347,128.000 274.800 M10.520 276.800 C 10.520 278.010,10.595 278.505,10.687 277.900 C 10.778 277.295,10.778 276.305,10.687 275.700 C 10.595 275.095,10.520 275.590,10.520 276.800 M380.481 277.182 C 381.033 278.066,381.422 277.955,381.062 277.017 C 380.932 276.678,380.638 276.400,380.409 276.400 C 380.146 276.400,380.172 276.687,380.481 277.182 M248.800 278.000 C 249.130 278.213,249.243 278.391,249.051 278.394 C 248.859 278.397,248.924 278.668,249.196 278.996 C 249.468 279.323,249.836 279.502,250.013 279.392 C 250.191 279.282,250.890 279.865,251.568 280.687 C 252.246 281.510,252.800 281.999,252.800 281.776 C 252.800 281.258,249.101 277.598,248.586 277.606 C 248.374 277.609,248.470 277.787,248.800 278.000 M9.701 282.400 C 9.697 285.823,9.737 286.031,10.105 284.502 C 10.381 283.353,10.382 282.123,10.109 280.702 C 9.717 278.664,9.705 278.716,9.701 282.400 M218.802 281.197 C 218.326 281.866,218.181 282.304,218.475 282.190 C 218.935 282.011,220.142 280.000,219.790 280.000 C 219.715 280.000,219.271 280.539,218.802 281.197 M111.570 284.271 L 110.600 285.342 111.900 284.444 C 113.212 283.537,113.475 283.200,112.870 283.200 C 112.688 283.200,112.103 283.682,111.570 284.271 M385.600 286.071 C 385.600 286.479,386.804 289.200,386.985 289.200 C 387.236 289.200,386.354 286.670,385.945 286.220 C 385.755 286.011,385.600 285.944,385.600 286.071 M108.275 287.522 C 107.224 288.619,106.823 289.480,107.581 289.012 C 108.012 288.745,109.737 286.400,109.502 286.400 C 109.418 286.400,108.866 286.905,108.275 287.522 M153.206 289.033 C 153.209 289.455,153.395 290.070,153.618 290.400 C 153.915 290.838,153.952 290.676,153.756 289.800 C 153.427 288.329,153.198 288.010,153.206 289.033 M214.509 293.200 C 214.509 294.190,214.587 294.595,214.682 294.100 C 214.778 293.605,214.778 292.795,214.682 292.300 C 214.587 291.805,214.509 292.210,214.509 293.200 M153.449 297.015 C 153.312 297.373,153.215 297.966,153.234 298.333 C 153.253 298.700,153.427 298.469,153.621 297.820 C 153.998 296.558,153.865 295.933,153.449 297.015 M389.309 298.800 C 389.309 299.790,389.387 300.195,389.482 299.700 C 389.578 299.205,389.578 298.395,389.482 297.900 C 389.387 297.405,389.309 297.810,389.309 298.800 M389.900 301.028 C 389.735 301.196,389.605 302.068,389.612 302.967 C 389.622 304.283,389.704 304.463,390.037 303.891 C 390.496 303.103,390.373 300.547,389.900 301.028 M389.628 306.876 C 389.613 307.688,389.780 308.464,390.000 308.600 C 390.483 308.898,390.483 307.323,390.000 306.200 C 389.723 305.555,389.651 305.687,389.628 306.876 M20.000 310.703 C 20.000 311.108,22.051 313.036,22.458 313.014 C 22.600 313.006,23.140 313.360,23.658 313.800 L 24.600 314.600 23.847 313.709 C 23.432 313.220,22.937 312.915,22.747 313.033 C 22.556 313.151,22.390 313.012,22.378 312.724 C 22.353 312.134,20.000 310.135,20.000 310.703 M223.348 312.700 C 223.718 313.415,224.089 314.000,224.173 314.000 C 224.538 314.000,223.856 312.379,223.295 311.913 C 222.772 311.479,222.780 311.601,223.348 312.700 M276.800 315.325 C 276.800 315.394,277.385 315.979,278.100 316.625 L 279.400 317.800 278.225 316.500 C 277.130 315.288,276.800 315.016,276.800 315.325 M225.807 317.479 C 226.435 318.981,226.800 319.560,226.800 319.054 C 226.800 318.546,225.645 316.000,225.415 316.000 C 225.291 316.000,225.467 316.666,225.807 317.479 M31.400 319.484 C 31.840 319.914,32.425 320.265,32.700 320.266 C 33.477 320.267,33.306 320.074,31.900 319.362 C 30.608 318.707,30.605 318.708,31.400 319.484 M72.976 321.780 C 72.227 322.340,72.232 322.352,73.106 322.132 C 73.605 322.006,74.110 321.745,74.230 321.552 C 74.568 321.004,73.836 321.138,72.976 321.780 M228.849 324.809 C 229.454 326.600,229.795 326.948,229.428 325.400 C 229.271 324.740,228.971 324.024,228.761 323.809 C 228.550 323.594,228.590 324.044,228.849 324.809 M50.100 325.491 C 50.925 325.578,52.275 325.578,53.100 325.491 C 53.925 325.405,53.250 325.334,51.600 325.334 C 49.950 325.334,49.275 325.405,50.100 325.491 M56.305 325.483 C 56.802 325.579,57.522 325.575,57.905 325.475 C 58.287 325.375,57.880 325.296,57.000 325.301 C 56.120 325.305,55.807 325.387,56.305 325.483 M286.877 325.974 C 287.143 326.400,287.494 326.666,287.657 326.565 C 287.821 326.464,288.633 327.060,289.462 327.891 C 290.292 328.721,291.427 329.636,291.985 329.925 C 292.543 330.214,292.010 329.547,290.800 328.442 C 289.590 327.337,288.285 326.323,287.900 326.189 C 287.515 326.056,287.200 325.778,287.200 325.573 C 287.200 325.368,287.018 325.200,286.797 325.200 C 286.553 325.200,286.585 325.507,286.877 325.974 M381.037 331.800 C 380.676 332.350,380.537 332.800,380.727 332.800 C 380.916 332.800,381.277 332.350,381.527 331.800 C 381.778 331.250,381.917 330.800,381.837 330.800 C 381.757 330.800,381.397 331.250,381.037 331.800 M143.867 333.467 C 143.720 333.613,143.618 334.288,143.641 334.967 L 143.682 336.200 144.010 334.803 C 144.353 333.347,144.317 333.016,143.867 333.467 M378.300 335.414 C 377.525 336.451,377.433 336.800,377.936 336.800 C 378.269 336.800,379.336 334.797,379.115 334.587 C 379.052 334.527,378.685 334.900,378.300 335.414 M232.292 335.042 C 232.131 335.202,232.005 335.708,232.012 336.167 C 232.023 336.936,232.056 336.945,232.440 336.285 C 232.888 335.516,232.773 334.560,232.292 335.042 M143.400 338.800 C 143.246 339.710,143.211 340.544,143.321 340.654 C 143.431 340.764,143.646 340.110,143.800 339.200 C 143.954 338.290,143.989 337.456,143.879 337.346 C 143.769 337.236,143.554 337.890,143.400 338.800 M375.776 338.187 C 375.117 338.686,375.099 338.776,375.657 338.787 C 376.019 338.794,376.418 338.530,376.545 338.200 C 376.831 337.455,376.747 337.453,375.776 338.187 M233.057 342.600 C 233.191 343.920,233.368 345.075,233.450 345.167 C 233.769 345.521,233.524 341.756,233.179 341.000 C 232.938 340.472,232.896 341.016,233.057 342.600 M370.600 342.196 L 369.400 343.189 370.700 342.565 C 371.415 342.222,372.000 341.775,372.000 341.571 C 372.000 341.057,371.952 341.078,370.600 342.196 M366.000 345.033 C 365.442 345.343,365.265 345.585,365.600 345.581 C 365.930 345.578,366.549 345.310,366.976 344.987 C 367.939 344.259,367.345 344.287,366.000 345.033 M143.256 347.200 C 143.256 347.750,143.411 348.560,143.600 349.000 C 143.913 349.729,143.944 349.712,143.944 348.800 C 143.944 348.250,143.789 347.440,143.600 347.000 C 143.287 346.271,143.256 346.288,143.256 347.200 M233.270 348.050 C 233.231 348.628,233.098 349.707,232.973 350.450 C 232.789 351.551,232.830 351.670,233.196 351.095 C 233.443 350.707,233.577 349.627,233.493 348.695 C 233.409 347.763,233.308 347.473,233.270 348.050 M330.352 350.112 C 330.545 350.305,331.219 350.398,331.851 350.319 C 332.909 350.187,332.881 350.159,331.500 349.968 C 330.640 349.849,330.150 349.910,330.352 350.112 M352.800 350.000 C 351.416 350.291,351.414 350.295,352.600 350.341 C 353.260 350.367,354.070 350.213,354.400 350.000 C 355.066 349.570,354.845 349.570,352.800 350.000 M335.800 351.200 C 335.656 351.433,336.063 351.600,336.776 351.600 C 337.449 351.600,338.000 351.420,338.000 351.200 C 338.000 350.980,337.561 350.800,337.024 350.800 C 336.487 350.800,335.936 350.980,335.800 351.200 M346.800 351.200 C 347.586 351.708,348.800 351.708,348.800 351.200 C 348.800 350.980,348.215 350.803,347.500 350.806 C 346.514 350.811,346.345 350.906,346.800 351.200 M145.426 358.500 C 145.951 360.184,146.380 361.200,146.566 361.200 C 146.668 361.200,146.475 360.390,146.138 359.400 C 145.524 357.597,144.899 356.807,145.426 358.500 M229.232 363.538 C 229.214 363.834,228.828 364.599,228.373 365.238 C 227.624 366.290,227.611 366.400,228.239 366.400 C 228.621 366.400,228.813 366.279,228.665 366.132 C 228.518 365.984,228.679 365.434,229.024 364.908 C 229.368 364.382,229.563 363.737,229.457 363.476 C 229.323 363.148,229.253 363.167,229.232 363.538 M223.863 371.200 C 223.275 371.860,222.941 372.400,223.122 372.400 C 223.302 372.400,223.849 371.860,224.337 371.200 C 224.825 370.540,225.158 370.000,225.078 370.000 C 224.998 370.000,224.451 370.540,223.863 371.200 M161.000 377.367 C 161.440 377.700,162.025 378.166,162.300 378.402 C 162.622 378.679,162.800 378.687,162.800 378.426 C 162.800 378.203,162.215 377.737,161.500 377.391 C 160.407 376.861,160.327 376.858,161.000 377.367 M213.062 379.395 C 212.714 379.744,212.328 380.009,212.204 379.984 C 212.081 379.960,211.760 380.032,211.490 380.145 C 211.221 380.257,211.360 380.309,211.800 380.259 C 212.860 380.139,214.258 379.325,213.944 379.011 C 213.807 378.874,213.410 379.047,213.062 379.395 M178.200 383.600 C 178.064 383.820,178.223 384.000,178.553 384.000 C 178.883 384.000,179.264 383.820,179.400 383.600 C 179.536 383.380,179.377 383.200,179.047 383.200 C 178.717 383.200,178.336 383.380,178.200 383.600 M184.800 384.398 C 185.341 384.749,189.965 385.000,189.567 384.656 C 189.475 384.577,188.230 384.398,186.800 384.260 C 185.051 384.090,184.396 384.135,184.800 384.398 M192.800 384.400 L 190.200 384.662 192.876 384.731 C 194.348 384.769,195.664 384.620,195.800 384.400 C 195.936 384.180,195.902 384.031,195.724 384.069 C 195.546 384.107,194.230 384.256,192.800 384.400 " stroke="none" fill="#29bb60" fill-rule="evenodd"></path><path id="path3" d="M157.000 19.600 C 157.295 20.078,158.688 20.078,159.800 19.600 C 160.400 19.342,160.119 19.249,158.676 19.228 C 157.490 19.211,156.847 19.353,157.000 19.600 M164.800 19.600 C 164.800 19.820,165.340 20.000,166.000 20.000 C 166.660 20.000,167.200 19.820,167.200 19.600 C 167.200 19.380,166.660 19.200,166.000 19.200 C 165.340 19.200,164.800 19.380,164.800 19.600 M132.400 25.200 C 132.400 25.420,132.152 25.600,131.849 25.600 C 131.546 25.600,131.078 25.865,130.809 26.189 C 130.394 26.689,130.509 26.684,131.560 26.160 C 132.614 25.634,133.252 24.800,132.600 24.800 C 132.490 24.800,132.400 24.980,132.400 25.200 M301.800 76.800 C 301.664 77.020,301.823 77.200,302.153 77.200 C 302.483 77.200,302.864 77.020,303.000 76.800 C 303.136 76.580,302.977 76.400,302.647 76.400 C 302.317 76.400,301.936 76.580,301.800 76.800 M313.800 76.800 C 313.936 77.020,314.317 77.200,314.647 77.200 C 314.977 77.200,315.136 77.020,315.000 76.800 C 314.864 76.580,314.483 76.400,314.153 76.400 C 313.823 76.400,313.664 76.580,313.800 76.800 M289.827 79.981 C 289.401 80.136,289.230 80.371,289.446 80.505 C 289.858 80.760,291.114 80.168,290.788 79.872 C 290.685 79.778,290.252 79.827,289.827 79.981 M326.000 79.941 C 326.000 80.088,326.330 80.414,326.733 80.666 C 327.307 81.024,327.467 81.007,327.467 80.591 C 327.467 80.298,327.137 79.972,326.733 79.867 C 326.330 79.761,326.000 79.795,326.000 79.941 M108.957 85.433 C 109.091 85.781,109.200 86.141,109.200 86.233 C 109.200 86.325,109.402 86.400,109.649 86.400 C 109.979 86.400,109.980 86.258,109.652 85.863 C 109.407 85.568,109.325 85.208,109.470 85.063 C 109.615 84.918,109.504 84.800,109.224 84.800 C 108.924 84.800,108.814 85.060,108.957 85.433 M274.000 91.800 C 273.028 92.790,272.323 93.600,272.433 93.600 C 272.543 93.600,273.428 92.790,274.400 91.800 C 275.372 90.810,276.077 90.000,275.967 90.000 C 275.857 90.000,274.972 90.810,274.000 91.800 M201.550 97.000 C 201.523 97.110,201.478 97.365,201.450 97.567 C 201.423 97.768,201.265 98.068,201.100 98.233 C 200.935 98.398,200.805 98.728,200.812 98.967 C 200.827 99.481,201.733 98.023,201.849 97.300 C 201.924 96.831,201.659 96.565,201.550 97.000 M117.600 98.356 C 117.600 98.735,119.555 100.599,119.711 100.368 C 119.774 100.276,119.324 99.716,118.712 99.126 C 118.101 98.535,117.600 98.188,117.600 98.356 M120.689 101.630 C 121.178 102.139,121.678 102.455,121.801 102.332 C 121.924 102.209,121.524 101.792,120.912 101.406 L 119.800 100.704 120.689 101.630 M264.525 103.514 C 264.264 103.680,263.859 104.318,263.626 104.931 C 263.358 105.637,263.349 105.955,263.601 105.799 C 263.821 105.664,264.000 105.353,264.000 105.108 C 264.000 104.863,264.298 104.334,264.662 103.931 C 265.361 103.159,265.313 103.013,264.525 103.514 M31.578 118.246 C 30.150 119.329,30.235 119.358,32.100 118.423 C 32.705 118.120,33.200 117.720,33.200 117.536 C 33.200 117.048,33.096 117.093,31.578 118.246 M145.400 120.696 C 146.720 122.020,147.879 123.030,147.975 122.943 C 148.220 122.720,144.774 119.231,143.800 118.714 C 143.360 118.481,144.080 119.373,145.400 120.696 M23.033 124.446 C 22.442 124.911,22.046 125.379,22.153 125.486 C 22.260 125.593,22.853 125.213,23.470 124.640 C 24.819 123.389,24.536 123.263,23.033 124.446 M90.200 127.906 C 91.300 128.996,92.261 129.837,92.335 129.775 C 92.673 129.494,90.477 127.060,89.400 126.523 C 88.392 126.021,88.519 126.241,90.200 127.906 M19.800 127.600 C 19.399 128.043,19.162 128.495,19.272 128.605 C 19.382 128.715,19.799 128.443,20.200 128.000 C 20.601 127.557,20.838 127.105,20.728 126.995 C 20.618 126.885,20.201 127.157,19.800 127.600 M94.800 132.800 C 95.035 133.240,95.430 133.600,95.676 133.600 C 95.922 133.600,95.798 133.240,95.400 132.800 C 95.002 132.360,94.608 132.000,94.524 132.000 C 94.440 132.000,94.565 132.360,94.800 132.800 M101.440 142.360 C 101.780 143.042,102.119 143.600,102.192 143.600 C 102.518 143.600,101.859 141.981,101.367 141.573 C 100.955 141.230,100.972 141.422,101.440 142.360 M249.429 143.829 C 249.083 144.174,248.814 144.759,248.832 145.129 C 248.857 145.677,248.904 145.690,249.084 145.200 C 249.205 144.870,249.579 144.285,249.914 143.900 C 250.672 143.030,250.284 142.973,249.429 143.829 M159.200 147.024 C 159.200 147.604,159.373 147.940,159.600 147.800 C 159.820 147.664,160.000 147.203,160.000 146.776 C 160.000 146.349,159.820 146.000,159.600 146.000 C 159.380 146.000,159.200 146.461,159.200 147.024 M10.978 151.779 C 10.835 152.537,10.903 153.662,11.128 154.279 C 11.486 155.260,11.541 155.087,11.568 152.900 C 11.603 150.124,11.371 149.682,10.978 151.779 M352.679 150.957 C 352.515 151.374,352.475 151.809,352.591 151.924 C 352.955 152.289,353.276 151.691,353.124 150.931 C 352.983 150.235,352.962 150.236,352.679 150.957 M239.600 153.833 C 239.042 154.143,238.865 154.385,239.200 154.381 C 239.530 154.378,240.149 154.110,240.576 153.787 C 241.539 153.059,240.945 153.087,239.600 153.833 M236.571 155.391 C 236.147 155.712,235.980 155.978,236.200 155.981 C 236.794 155.991,237.810 155.277,237.559 155.026 C 237.440 154.906,236.995 155.071,236.571 155.391 M109.609 155.471 C 109.614 155.652,109.976 156.250,110.414 156.800 C 111.048 157.596,111.153 157.637,110.928 157.000 C 110.619 156.128,109.595 154.940,109.609 155.471 M113.235 159.754 C 113.735 160.329,114.224 160.800,114.321 160.800 C 114.680 160.800,113.314 159.038,112.829 158.876 C 112.552 158.784,112.735 159.179,113.235 159.754 M157.029 161.143 C 156.287 162.580,156.259 162.800,156.824 162.800 C 157.057 162.800,157.136 162.620,157.000 162.400 C 156.864 162.180,156.973 162.000,157.243 162.000 C 157.513 162.000,157.615 161.882,157.470 161.737 C 157.325 161.592,157.411 161.228,157.660 160.927 C 157.910 160.627,158.012 160.278,157.886 160.153 C 157.761 160.028,157.376 160.473,157.029 161.143 M114.833 161.704 C 114.925 161.762,115.431 162.167,115.958 162.604 L 116.916 163.400 116.444 162.500 C 116.184 162.005,115.678 161.600,115.319 161.600 C 114.960 161.600,114.742 161.647,114.833 161.704 M121.256 166.766 C 121.775 167.187,122.277 167.455,122.371 167.361 C 122.576 167.157,121.144 166.031,120.656 166.013 C 120.466 166.006,120.736 166.345,121.256 166.766 M340.000 168.400 C 339.325 168.928,339.196 169.185,339.604 169.191 C 339.936 169.196,340.432 168.840,340.707 168.400 C 341.322 167.416,341.258 167.416,340.000 168.400 M134.700 171.089 C 135.415 171.178,136.585 171.178,137.300 171.089 C 138.015 171.001,137.430 170.928,136.000 170.928 C 134.570 170.928,133.985 171.001,134.700 171.089 M17.500 172.670 C 17.995 173.015,18.400 173.535,18.400 173.825 C 18.400 174.115,18.578 174.463,18.795 174.597 C 19.342 174.935,18.826 173.572,18.077 172.700 C 17.747 172.315,17.279 172.009,17.038 172.021 C 16.797 172.033,17.005 172.324,17.500 172.670 M282.811 181.185 C 282.428 181.427,283.742 181.554,286.589 181.550 C 289.383 181.546,290.747 181.412,290.378 181.178 C 289.621 180.699,283.571 180.704,282.811 181.185 M309.200 181.200 C 308.715 181.514,308.772 181.589,309.500 181.594 C 309.995 181.597,310.400 181.420,310.400 181.200 C 310.400 180.699,309.976 180.699,309.200 181.200 M35.438 187.939 C 35.310 188.146,35.499 188.429,35.860 188.568 C 36.744 188.907,36.950 188.623,36.245 188.038 C 35.903 187.754,35.577 187.714,35.438 187.939 M77.400 200.400 C 77.108 200.873,77.499 200.873,78.600 200.400 C 79.371 200.069,79.369 200.055,78.524 200.028 C 78.042 200.013,77.536 200.180,77.400 200.400 M93.287 205.191 C 93.565 205.636,93.929 206.000,94.096 206.000 C 94.674 206.000,94.397 205.391,93.591 204.887 C 92.841 204.419,92.819 204.441,93.287 205.191 M106.000 218.351 C 106.000 218.544,106.270 218.926,106.600 219.200 C 107.015 219.544,107.200 219.559,107.200 219.249 C 107.200 219.002,107.009 218.800,106.776 218.800 C 106.543 218.800,106.464 218.620,106.600 218.400 C 106.736 218.180,106.657 218.000,106.424 218.000 C 106.191 218.000,106.000 218.158,106.000 218.351 M105.400 234.800 C 104.768 235.460,104.452 236.000,104.698 236.000 C 104.944 236.000,105.530 235.460,106.000 234.800 C 106.470 234.140,106.786 233.600,106.702 233.600 C 106.618 233.600,106.032 234.140,105.400 234.800 M65.742 237.106 C 65.490 237.268,66.616 237.411,68.244 237.425 C 69.872 237.438,70.978 237.306,70.702 237.131 C 70.071 236.731,66.356 236.712,65.742 237.106 M57.400 237.600 C 57.264 237.820,57.423 238.000,57.753 238.000 C 58.083 238.000,58.464 237.820,58.600 237.600 C 58.736 237.380,58.577 237.200,58.247 237.200 C 57.917 237.200,57.536 237.380,57.400 237.600 M78.000 237.600 C 78.000 237.820,78.270 238.000,78.600 238.000 C 78.930 238.000,79.200 237.820,79.200 237.600 C 79.200 237.380,78.930 237.200,78.600 237.200 C 78.270 237.200,78.000 237.380,78.000 237.600 M295.000 239.600 C 296.111 240.078,296.895 240.078,296.600 239.600 C 296.464 239.380,295.868 239.213,295.276 239.228 C 294.315 239.253,294.286 239.293,295.000 239.600 M312.400 241.600 C 312.730 241.813,313.270 241.988,313.600 241.988 C 314.133 241.988,314.133 241.945,313.600 241.600 C 313.270 241.387,312.730 241.212,312.400 241.212 C 311.867 241.212,311.867 241.255,312.400 241.600 M31.500 244.432 C 31.115 244.656,30.803 245.056,30.806 245.320 C 30.810 245.652,30.903 245.666,31.106 245.366 C 31.268 245.127,31.760 244.727,32.200 244.478 C 32.640 244.228,32.820 244.024,32.600 244.024 C 32.380 244.024,31.885 244.208,31.500 244.432 M23.384 250.027 C 22.960 250.713,23.339 250.780,24.177 250.167 C 24.826 249.693,24.846 249.600,24.300 249.600 C 23.941 249.600,23.529 249.792,23.384 250.027 M372.637 267.902 C 373.317 268.506,374.431 269.630,375.112 270.400 C 375.793 271.170,376.302 271.530,376.245 271.200 C 376.100 270.376,373.182 267.395,372.200 267.070 C 371.626 266.879,371.749 267.114,372.637 267.902 M143.200 276.000 C 143.200 276.220,143.605 276.397,144.100 276.394 C 144.828 276.389,144.885 276.314,144.400 276.000 C 143.624 275.499,143.200 275.499,143.200 276.000 M9.915 279.600 C 10.012 280.260,10.160 280.800,10.245 280.800 C 10.330 280.800,10.400 280.260,10.400 279.600 C 10.400 278.940,10.251 278.400,10.069 278.400 C 9.887 278.400,9.818 278.940,9.915 279.600 M118.000 279.433 C 117.442 279.743,117.265 279.985,117.600 279.981 C 117.930 279.978,118.549 279.710,118.976 279.387 C 119.939 278.659,119.345 278.687,118.000 279.433 M250.629 280.038 C 251.273 280.829,251.881 281.408,251.979 281.325 C 252.078 281.242,251.551 280.595,250.809 279.887 L 249.458 278.600 250.629 280.038 M110.771 285.302 C 110.205 285.796,109.485 286.551,109.171 286.981 C 108.262 288.225,110.140 286.838,111.214 285.473 C 112.242 284.166,112.125 284.121,110.771 285.302 M256.492 288.875 C 256.579 289.136,256.864 289.421,257.125 289.508 C 257.418 289.606,257.507 289.423,257.357 289.033 C 257.078 288.306,256.252 288.155,256.492 288.875 M257.401 290.306 C 257.621 290.468,258.056 291.095,258.368 291.700 C 258.680 292.305,259.113 292.800,259.330 292.800 C 259.547 292.800,259.453 292.485,259.123 292.100 C 258.792 291.715,258.410 291.085,258.273 290.700 C 258.137 290.315,257.794 290.003,257.513 290.006 C 257.197 290.010,257.154 290.125,257.401 290.306 M100.081 299.218 C 99.772 299.713,99.746 300.000,100.009 300.000 C 100.238 300.000,100.532 299.722,100.662 299.383 C 101.022 298.445,100.633 298.334,100.081 299.218 M91.873 308.831 C 90.593 310.134,89.712 311.200,89.915 311.200 C 90.299 311.200,94.400 307.016,94.400 306.624 C 94.400 306.270,94.327 306.334,91.873 308.831 M274.000 312.908 C 274.000 313.242,274.270 313.618,274.600 313.745 C 274.930 313.871,275.200 313.823,275.200 313.636 C 275.200 313.450,274.930 313.074,274.600 312.800 C 274.112 312.395,274.000 312.415,274.000 312.908 M22.800 313.600 C 23.035 314.040,23.430 314.400,23.676 314.400 C 23.922 314.400,23.798 314.040,23.400 313.600 C 23.002 313.160,22.608 312.800,22.524 312.800 C 22.440 312.800,22.565 313.160,22.800 313.600 M224.800 315.029 C 224.800 315.154,225.070 315.527,225.400 315.857 C 226.051 316.508,226.133 316.411,225.757 315.433 C 225.529 314.838,224.800 314.530,224.800 315.029 M282.122 321.362 C 282.960 322.153,283.756 322.800,283.892 322.800 C 284.312 322.800,282.248 320.750,281.400 320.326 C 280.960 320.105,281.285 320.572,282.122 321.362 M52.800 326.000 C 52.800 326.220,53.700 326.400,54.800 326.400 C 55.900 326.400,56.800 326.220,56.800 326.000 C 56.800 325.780,55.900 325.600,54.800 325.600 C 53.700 325.600,52.800 325.780,52.800 326.000 M143.449 336.615 C 143.312 336.973,143.216 337.656,143.236 338.133 C 143.262 338.747,143.385 338.608,143.659 337.656 C 144.057 336.272,143.894 335.458,143.449 336.615 M143.228 349.076 C 143.213 349.558,143.380 350.064,143.600 350.200 C 144.073 350.492,144.073 350.101,143.600 349.000 C 143.269 348.229,143.255 348.231,143.228 349.076 M340.600 351.600 C 340.736 351.820,341.366 352.000,342.000 352.000 C 342.634 352.000,343.264 351.820,343.400 351.600 C 343.550 351.358,342.996 351.200,342.000 351.200 C 341.004 351.200,340.450 351.358,340.600 351.600 M149.526 367.474 C 149.815 367.589,150.225 368.140,150.437 368.697 C 150.649 369.255,150.932 369.602,151.065 369.468 C 151.420 369.114,150.069 367.194,149.491 367.232 C 149.139 367.254,149.149 367.323,149.526 367.474 M226.811 367.787 C 226.543 368.109,226.417 368.604,226.531 368.887 C 226.663 369.217,226.748 369.158,226.768 368.720 C 226.786 368.346,227.115 367.856,227.500 367.632 C 227.885 367.408,227.997 367.219,227.749 367.212 C 227.501 367.205,227.079 367.464,226.811 367.787 M223.020 372.430 C 222.372 373.059,221.934 373.667,222.048 373.781 C 222.162 373.895,222.863 373.361,223.606 372.594 C 225.218 370.931,224.713 370.789,223.020 372.430 " stroke="none" fill="#34ba6c" fill-rule="evenodd"></path><path id="path4" d="M157.500 20.293 C 158.435 20.377,159.965 20.377,160.900 20.293 C 161.835 20.209,161.070 20.140,159.200 20.140 C 157.330 20.140,156.565 20.209,157.500 20.293 M164.100 20.291 C 164.925 20.378,166.275 20.378,167.100 20.291 C 167.925 20.205,167.250 20.134,165.600 20.134 C 163.950 20.134,163.275 20.205,164.100 20.291 M149.800 20.800 L 149.000 21.144 149.800 21.144 C 150.240 21.144,150.960 20.989,151.400 20.800 L 152.200 20.456 151.400 20.456 C 150.960 20.456,150.240 20.611,149.800 20.800 M140.000 22.376 C 140.000 22.609,139.685 22.814,139.300 22.832 C 138.908 22.849,138.813 22.950,139.085 23.060 C 139.782 23.343,141.027 22.588,140.451 22.232 C 140.203 22.078,140.000 22.143,140.000 22.376 M191.167 28.945 C 191.700 29.601,193.200 30.593,193.200 30.289 C 193.200 30.213,192.615 29.722,191.900 29.199 C 191.096 28.610,190.816 28.513,191.167 28.945 M121.978 33.500 L 120.600 35.000 122.100 33.622 C 122.925 32.863,123.600 32.188,123.600 32.122 C 123.600 31.816,123.262 32.104,121.978 33.500 M195.600 32.983 C 195.600 33.143,195.960 33.731,196.400 34.291 C 196.840 34.850,197.200 35.177,197.200 35.017 C 197.200 34.857,196.840 34.269,196.400 33.709 C 195.960 33.150,195.600 32.823,195.600 32.983 M118.175 37.300 L 117.000 38.600 118.300 37.425 C 119.512 36.330,119.784 36.000,119.475 36.000 C 119.406 36.000,118.821 36.585,118.175 37.300 M205.200 55.976 C 205.200 56.649,205.269 57.200,205.353 57.200 C 205.693 57.200,205.869 55.166,205.546 54.967 C 205.356 54.849,205.200 55.303,205.200 55.976 M206.157 66.800 C 206.157 69.770,206.220 70.985,206.297 69.500 C 206.374 68.015,206.374 65.585,206.297 64.100 C 206.220 62.615,206.157 63.830,206.157 66.800 M106.137 67.800 C 106.139 69.560,106.209 70.230,106.293 69.289 C 106.378 68.349,106.377 66.909,106.291 66.089 C 106.205 65.270,106.136 66.040,106.137 67.800 M205.606 74.900 C 205.611 75.628,205.686 75.685,206.000 75.200 C 206.501 74.424,206.501 74.000,206.000 74.000 C 205.780 74.000,205.603 74.405,205.606 74.900 M205.309 78.000 C 205.309 78.990,205.387 79.395,205.482 78.900 C 205.578 78.405,205.578 77.595,205.482 77.100 C 205.387 76.605,205.309 77.010,205.309 78.000 M304.000 76.800 C 304.000 77.020,304.360 77.200,304.800 77.200 C 305.240 77.200,305.600 77.020,305.600 76.800 C 305.600 76.580,305.240 76.400,304.800 76.400 C 304.360 76.400,304.000 76.580,304.000 76.800 M311.400 76.800 C 311.264 77.020,311.534 77.200,312.000 77.200 C 312.466 77.200,312.736 77.020,312.600 76.800 C 312.464 76.580,312.194 76.400,312.000 76.400 C 311.806 76.400,311.536 76.580,311.400 76.800 M301.300 77.476 C 301.685 77.576,302.315 77.576,302.700 77.476 C 303.085 77.375,302.770 77.293,302.000 77.293 C 301.230 77.293,300.915 77.375,301.300 77.476 M314.100 77.476 C 314.485 77.576,315.115 77.576,315.500 77.476 C 315.885 77.375,315.570 77.293,314.800 77.293 C 314.030 77.293,313.715 77.375,314.100 77.476 M330.000 82.374 C 330.000 82.597,330.585 83.063,331.300 83.409 C 332.393 83.939,332.473 83.942,331.800 83.433 C 331.360 83.100,330.775 82.634,330.500 82.398 C 330.178 82.121,330.000 82.113,330.000 82.374 M338.400 88.125 C 338.400 88.194,338.985 88.779,339.700 89.425 L 341.000 90.600 339.825 89.300 C 338.730 88.088,338.400 87.816,338.400 88.125 M274.400 91.800 C 272.761 93.450,271.510 94.800,271.620 94.800 C 271.730 94.800,273.161 93.450,274.800 91.800 C 276.439 90.150,277.690 88.800,277.580 88.800 C 277.470 88.800,276.039 90.150,274.400 91.800 M114.400 93.600 C 114.870 94.260,115.344 94.800,115.454 94.800 C 115.564 94.800,115.270 94.260,114.800 93.600 C 114.330 92.940,113.856 92.400,113.746 92.400 C 113.636 92.400,113.930 92.940,114.400 93.600 M345.006 95.711 C 345.614 96.542,346.196 97.138,346.298 97.035 C 346.401 96.932,345.904 96.252,345.193 95.524 L 343.900 94.200 345.006 95.711 M119.400 99.600 C 120.483 100.700,121.460 101.600,121.570 101.600 C 121.680 101.600,120.883 100.700,119.800 99.600 C 118.717 98.500,117.740 97.600,117.630 97.600 C 117.520 97.600,118.317 98.500,119.400 99.600 M127.069 106.032 C 127.566 106.633,130.000 108.164,130.000 107.876 C 130.000 107.783,129.235 107.202,128.300 106.585 C 127.365 105.968,126.811 105.720,127.069 106.032 M197.849 106.215 C 197.712 106.573,197.615 107.166,197.634 107.533 C 197.653 107.900,197.827 107.669,198.021 107.020 C 198.398 105.758,198.265 105.133,197.849 106.215 M134.800 110.946 C 134.800 111.056,135.340 111.530,136.000 112.000 C 136.660 112.470,137.200 112.764,137.200 112.654 C 137.200 112.544,136.660 112.070,136.000 111.600 C 135.340 111.130,134.800 110.836,134.800 110.946 M48.236 112.858 C 48.352 113.046,48.032 113.214,47.524 113.232 C 47.016 113.249,46.808 113.348,47.063 113.453 C 47.318 113.557,48.128 113.484,48.863 113.291 L 50.200 112.940 49.112 112.728 C 48.514 112.611,48.119 112.670,48.236 112.858 M60.200 112.771 C 59.504 113.046,59.573 113.125,60.729 113.381 C 61.459 113.544,62.164 113.569,62.295 113.438 C 62.426 113.307,62.133 113.200,61.643 113.200 C 61.151 113.200,60.863 113.021,61.000 112.800 C 61.281 112.345,61.282 112.345,60.200 112.771 M141.430 116.100 C 141.542 116.375,142.121 116.944,142.717 117.365 C 143.798 118.129,143.798 118.128,142.625 116.865 C 141.342 115.484,141.119 115.341,141.430 116.100 M195.600 117.976 C 195.600 118.649,195.669 119.200,195.753 119.200 C 196.093 119.200,196.269 117.166,195.946 116.967 C 195.756 116.849,195.600 117.303,195.600 117.976 M195.206 123.276 C 195.211 124.537,195.316 124.839,195.600 124.400 C 196.107 123.615,196.107 122.114,195.600 121.800 C 195.357 121.650,195.202 122.228,195.206 123.276 M22.175 126.100 L 21.000 127.400 22.300 126.225 C 23.015 125.579,23.600 124.994,23.600 124.925 C 23.600 124.616,23.270 124.888,22.175 126.100 M90.600 128.800 C 91.683 129.900,92.660 130.800,92.770 130.800 C 92.880 130.800,92.083 129.900,91.000 128.800 C 89.917 127.700,88.940 126.800,88.830 126.800 C 88.720 126.800,89.517 127.700,90.600 128.800 M152.400 128.000 C 152.870 128.660,153.344 129.200,153.454 129.200 C 153.564 129.200,153.270 128.660,152.800 128.000 C 152.330 127.340,151.856 126.800,151.746 126.800 C 151.636 126.800,151.930 127.340,152.400 128.000 M195.206 128.676 C 195.211 129.807,195.312 130.045,195.600 129.600 C 196.106 128.818,196.106 127.712,195.600 127.400 C 195.360 127.252,195.202 127.761,195.206 128.676 M19.000 129.506 C 18.498 129.875,16.713 132.400,16.954 132.400 C 17.053 132.400,17.703 131.680,18.400 130.800 C 19.649 129.222,19.785 128.929,19.000 129.506 M254.446 130.220 C 254.421 130.671,254.187 131.253,253.927 131.513 C 253.666 131.774,253.562 132.095,253.694 132.228 C 254.070 132.603,254.872 130.839,254.672 130.079 C 254.531 129.546,254.483 129.576,254.446 130.220 M92.800 131.338 C 92.800 131.400,93.369 131.979,94.065 132.625 C 95.328 133.798,95.329 133.798,94.565 132.717 C 93.928 131.815,92.800 130.934,92.800 131.338 M195.606 133.300 C 195.610 134.184,195.723 134.426,195.957 134.056 C 196.272 133.559,196.117 132.000,195.753 132.000 C 195.669 132.000,195.603 132.585,195.606 133.300 M100.400 141.305 C 100.400 141.698,102.823 145.600,103.067 145.600 C 103.176 145.600,102.858 144.925,102.361 144.100 C 101.008 141.856,100.400 140.990,100.400 141.305 M12.446 144.300 C 12.421 144.795,12.209 145.200,11.976 145.200 C 11.743 145.200,11.678 145.403,11.832 145.651 C 12.217 146.274,12.909 144.987,12.673 144.087 C 12.541 143.585,12.480 143.643,12.446 144.300 M159.432 144.749 C 159.278 144.997,159.343 145.200,159.576 145.200 C 159.809 145.200,160.029 145.875,160.064 146.700 C 160.127 148.165,160.132 148.169,160.289 146.909 C 160.468 145.465,159.890 144.007,159.432 144.749 M11.572 148.100 C 11.451 150.293,11.604 156.937,11.780 157.113 C 11.901 157.234,12.000 155.143,12.000 152.467 C 12.000 148.616,11.708 145.638,11.572 148.100 M245.775 149.700 L 244.600 151.000 245.900 149.825 C 246.615 149.179,247.200 148.594,247.200 148.525 C 247.200 148.216,246.870 148.488,245.775 149.700 M202.807 149.798 C 204.028 151.442,204.355 151.668,204.292 150.821 C 204.259 150.388,204.150 150.117,204.049 150.218 C 203.948 150.319,203.493 150.086,203.039 149.701 C 202.237 149.020,202.230 149.022,202.807 149.798 M107.991 154.388 C 108.457 155.041,109.042 155.702,109.291 155.856 C 109.541 156.011,109.241 155.476,108.625 154.668 C 107.288 152.915,106.784 152.692,107.991 154.388 M236.176 156.180 C 235.427 156.740,235.432 156.752,236.306 156.532 C 236.805 156.406,237.310 156.145,237.430 155.952 C 237.768 155.404,237.036 155.538,236.176 156.180 M220.000 158.889 C 220.000 159.060,220.720 159.200,221.600 159.200 C 222.480 159.200,223.200 159.129,223.200 159.042 C 223.200 158.955,222.480 158.815,221.600 158.731 C 220.720 158.648,220.000 158.719,220.000 158.889 M225.800 158.800 L 224.600 159.105 225.676 159.153 C 226.268 159.179,226.864 159.020,227.000 158.800 C 227.136 158.580,227.192 158.421,227.124 158.447 C 227.056 158.473,226.460 158.632,225.800 158.800 M114.200 161.600 C 115.059 162.480,115.852 163.200,115.962 163.200 C 116.072 163.200,115.459 162.480,114.600 161.600 C 113.741 160.720,112.948 160.000,112.838 160.000 C 112.728 160.000,113.341 160.720,114.200 161.600 M344.204 163.596 C 343.574 164.254,343.142 164.875,343.244 164.977 C 343.346 165.079,343.926 164.541,344.532 163.781 C 345.887 162.083,345.736 161.997,344.204 163.596 M343.011 165.983 C 342.881 166.193,342.544 166.277,342.262 166.168 C 341.980 166.060,341.401 166.364,340.975 166.844 L 340.200 167.716 341.200 167.172 C 341.750 166.873,342.326 166.622,342.480 166.614 C 342.840 166.596,343.845 165.600,343.504 165.600 C 343.363 165.600,343.141 165.772,343.011 165.983 M138.600 171.200 L 137.400 171.505 138.476 171.553 C 139.068 171.579,139.664 171.420,139.800 171.200 C 139.936 170.980,139.992 170.821,139.924 170.847 C 139.856 170.873,139.260 171.032,138.600 171.200 M334.081 172.172 C 332.223 173.485,331.962 173.861,333.531 172.962 C 334.263 172.543,335.050 171.975,335.280 171.700 C 335.871 170.993,335.593 171.102,334.081 172.172 M314.098 179.866 C 313.544 180.089,313.811 180.800,314.447 180.800 C 314.667 180.800,314.744 180.634,314.619 180.430 C 314.493 180.227,314.707 179.978,315.095 179.877 C 315.562 179.755,315.598 179.688,315.200 179.678 C 314.870 179.670,314.374 179.754,314.098 179.866 M284.700 180.695 C 285.855 180.776,287.745 180.776,288.900 180.695 C 290.055 180.614,289.110 180.548,286.800 180.548 C 284.490 180.548,283.545 180.614,284.700 180.695 M308.800 180.556 C 308.800 180.642,309.430 180.786,310.200 180.876 C 310.970 180.966,311.600 180.896,311.600 180.720 C 311.600 180.544,310.970 180.400,310.200 180.400 C 309.430 180.400,308.800 180.470,308.800 180.556 M292.139 181.254 C 292.668 181.561,293.002 181.558,293.319 181.241 C 293.640 180.920,293.441 180.803,292.580 180.812 C 291.546 180.823,291.491 180.877,292.139 181.254 M306.539 181.254 C 307.068 181.561,307.402 181.558,307.719 181.241 C 308.040 180.920,307.841 180.803,306.980 180.812 C 305.946 180.823,305.891 180.877,306.539 181.254 M298.711 181.493 C 299.651 181.578,301.091 181.577,301.911 181.491 C 302.730 181.405,301.960 181.336,300.200 181.337 C 298.440 181.339,297.770 181.409,298.711 181.493 M268.300 185.029 C 266.805 185.840,266.896 186.178,268.400 185.400 C 269.060 185.059,269.600 184.694,269.600 184.590 C 269.600 184.332,269.557 184.347,268.300 185.029 M60.600 197.200 C 60.736 197.420,61.242 197.587,61.724 197.572 C 62.569 197.545,62.571 197.531,61.800 197.200 C 60.699 196.727,60.308 196.727,60.600 197.200 M67.700 198.676 C 68.085 198.776,68.715 198.776,69.100 198.676 C 69.485 198.575,69.170 198.493,68.400 198.493 C 67.630 198.493,67.315 198.575,67.700 198.676 M72.433 199.344 C 72.525 199.424,73.410 199.596,74.400 199.727 C 75.602 199.886,75.934 199.847,75.400 199.610 C 74.636 199.272,72.086 199.043,72.433 199.344 M79.000 200.000 C 79.660 200.168,79.945 200.327,79.633 200.353 C 79.322 200.379,79.173 200.506,79.303 200.637 C 79.433 200.767,79.958 200.740,80.470 200.577 C 81.610 200.215,80.549 199.642,78.800 199.675 C 77.893 199.693,77.911 199.723,79.000 200.000 M93.600 204.727 C 93.600 204.916,94.050 205.277,94.600 205.527 C 95.150 205.778,95.600 205.917,95.600 205.837 C 95.600 205.757,95.150 205.397,94.600 205.037 C 94.050 204.676,93.600 204.537,93.600 204.727 M254.243 205.433 C 253.902 206.321,253.951 211.304,254.306 211.860 C 254.468 212.113,254.600 210.628,254.600 208.560 C 254.600 204.489,254.601 204.499,254.243 205.433 M100.600 210.000 C 101.459 210.880,102.252 211.600,102.362 211.600 C 102.472 211.600,101.859 210.880,101.000 210.000 C 100.141 209.120,99.348 208.400,99.238 208.400 C 99.128 208.400,99.741 209.120,100.600 210.000 M254.926 215.169 C 254.967 215.701,255.270 216.210,255.600 216.299 C 255.996 216.406,256.046 216.349,255.746 216.130 C 255.497 215.949,255.193 215.440,255.072 215.000 C 254.899 214.369,254.868 214.405,254.926 215.169 M108.687 223.900 C 108.598 224.065,108.660 224.650,108.823 225.200 C 109.101 226.135,109.123 226.115,109.160 224.900 C 109.199 223.646,109.022 223.273,108.687 223.900 M262.400 227.800 C 263.595 229.010,264.663 230.000,264.773 230.000 C 264.883 230.000,263.995 229.010,262.800 227.800 C 261.605 226.590,260.537 225.600,260.427 225.600 C 260.317 225.600,261.205 226.590,262.400 227.800 M265.344 230.309 C 265.660 230.821,268.000 232.553,268.000 232.275 C 268.000 232.176,267.339 231.591,266.532 230.975 C 265.724 230.359,265.189 230.059,265.344 230.309 M107.800 232.400 C 107.459 233.060,107.269 233.600,107.379 233.600 C 107.489 233.600,107.859 233.060,108.200 232.400 C 108.541 231.740,108.731 231.200,108.621 231.200 C 108.511 231.200,108.141 231.740,107.800 232.400 M60.600 237.600 C 60.456 237.833,60.863 238.000,61.576 238.000 C 62.249 238.000,62.800 237.820,62.800 237.600 C 62.800 237.380,62.361 237.200,61.824 237.200 C 61.287 237.200,60.736 237.380,60.600 237.600 M73.600 237.600 C 73.154 237.888,73.384 237.989,74.500 237.994 C 75.325 237.997,76.000 237.820,76.000 237.600 C 76.000 237.091,74.388 237.091,73.600 237.600 M281.067 237.491 C 280.774 237.966,282.278 238.655,282.697 238.237 C 282.827 238.106,282.648 238.000,282.300 238.000 C 281.952 238.000,281.595 237.784,281.507 237.520 C 281.390 237.170,281.271 237.162,281.067 237.491 M57.100 238.282 C 57.595 238.378,58.405 238.378,58.900 238.282 C 59.395 238.187,58.990 238.109,58.000 238.109 C 57.010 238.109,56.605 238.187,57.100 238.282 M77.500 238.282 C 77.995 238.378,78.805 238.378,79.300 238.282 C 79.795 238.187,79.390 238.109,78.400 238.109 C 77.410 238.109,77.005 238.187,77.500 238.282 M51.200 238.800 C 50.405 239.314,51.404 239.314,52.600 238.800 L 53.400 238.456 52.600 238.434 C 52.160 238.422,51.530 238.587,51.200 238.800 M285.000 238.800 C 285.440 238.989,286.070 239.144,286.400 239.144 C 286.778 239.144,286.704 239.017,286.200 238.800 C 285.760 238.611,285.130 238.456,284.800 238.456 C 284.422 238.456,284.496 238.583,285.000 238.800 M88.200 239.600 C 88.064 239.820,88.334 240.000,88.800 240.000 C 89.266 240.000,89.536 239.820,89.400 239.600 C 89.264 239.380,88.994 239.200,88.800 239.200 C 88.606 239.200,88.336 239.380,88.200 239.600 M288.500 239.476 C 288.885 239.576,289.515 239.576,289.900 239.476 C 290.285 239.375,289.970 239.293,289.200 239.293 C 288.430 239.293,288.115 239.375,288.500 239.476 M292.000 239.600 C 292.000 239.820,292.405 239.997,292.900 239.994 C 293.628 239.989,293.685 239.914,293.200 239.600 C 292.424 239.099,292.000 239.099,292.000 239.600 M296.600 240.000 L 294.600 240.274 296.924 240.337 C 298.385 240.377,299.156 240.252,299.000 240.000 C 298.864 239.780,298.718 239.628,298.676 239.663 C 298.634 239.697,297.700 239.849,296.600 240.000 M303.012 240.380 C 302.744 240.814,305.289 241.388,306.079 241.072 C 306.365 240.957,306.015 240.849,305.300 240.832 C 304.585 240.814,304.000 240.620,304.000 240.400 C 304.000 239.892,303.322 239.878,303.012 240.380 M321.026 243.158 C 320.785 243.549,321.983 244.150,322.324 243.809 C 322.439 243.694,322.313 243.600,322.043 243.600 C 321.773 243.600,321.664 243.420,321.800 243.200 C 321.936 242.980,321.867 242.800,321.647 242.800 C 321.427 242.800,321.148 242.961,321.026 243.158 M329.067 245.091 C 328.774 245.566,330.278 246.255,330.697 245.837 C 330.827 245.706,330.648 245.600,330.300 245.600 C 329.952 245.600,329.595 245.384,329.507 245.120 C 329.390 244.770,329.271 244.762,329.067 245.091 M25.600 249.143 L 23.800 250.897 25.800 249.368 C 26.900 248.528,27.941 247.726,28.113 247.587 C 28.286 247.447,28.196 247.346,27.913 247.361 C 27.631 247.376,26.590 248.178,25.600 249.143 M22.996 251.207 C 22.858 251.430,22.549 251.492,22.311 251.345 C 22.072 251.197,21.990 251.260,22.129 251.485 C 22.395 251.915,21.079 253.346,20.734 253.001 C 20.624 252.890,20.533 253.077,20.533 253.416 C 20.533 253.818,21.067 253.511,22.067 252.535 C 22.910 251.711,23.600 250.984,23.600 250.919 C 23.600 250.651,23.231 250.827,22.996 251.207 M19.351 255.300 C 18.113 256.712,17.483 257.600,17.717 257.600 C 17.836 257.600,18.503 256.880,19.200 256.000 C 20.555 254.289,20.659 253.807,19.351 255.300 M373.400 269.200 C 374.483 270.300,375.460 271.200,375.570 271.200 C 375.680 271.200,374.883 270.300,373.800 269.200 C 372.717 268.100,371.740 267.200,371.630 267.200 C 371.520 267.200,372.317 268.100,373.400 269.200 M231.000 273.200 C 232.196 273.714,233.195 273.714,232.400 273.200 C 232.070 272.987,231.440 272.822,231.000 272.834 L 230.200 272.856 231.000 273.200 M131.244 273.777 C 131.530 274.063,138.399 274.134,138.679 273.855 C 138.819 273.715,137.163 273.600,135.000 273.600 C 132.837 273.600,131.147 273.680,131.244 273.777 M379.375 276.132 C 379.991 276.939,380.576 277.600,380.675 277.600 C 380.953 277.600,379.221 275.260,378.709 274.944 C 378.459 274.789,378.759 275.324,379.375 276.132 M145.000 276.266 C 145.660 276.615,146.557 277.193,146.993 277.550 C 147.742 278.164,147.755 278.160,147.222 277.474 C 146.657 276.746,144.720 275.586,144.120 275.616 C 143.944 275.625,144.340 275.917,145.000 276.266 M250.759 279.500 C 251.991 280.765,253.079 281.751,253.177 281.690 C 253.395 281.554,249.125 277.200,248.772 277.200 C 248.632 277.200,249.526 278.235,250.759 279.500 M220.575 278.900 L 219.400 280.200 220.700 279.025 C 221.415 278.379,222.000 277.794,222.000 277.725 C 222.000 277.416,221.670 277.688,220.575 278.900 M10.544 282.400 C 10.544 284.490,10.612 285.345,10.694 284.300 C 10.776 283.255,10.776 281.545,10.694 280.500 C 10.612 279.455,10.544 280.310,10.544 282.400 M149.602 279.833 C 149.603 280.035,150.068 280.740,150.635 281.400 L 151.666 282.600 150.763 281.200 C 149.604 279.404,149.600 279.399,149.602 279.833 M218.102 281.700 C 217.536 282.415,216.740 284.000,216.946 284.000 C 217.042 284.000,217.493 283.370,217.947 282.600 C 218.773 281.201,218.849 280.757,218.102 281.700 M109.588 285.900 L 107.000 288.600 109.700 286.012 C 111.185 284.588,112.400 283.373,112.400 283.312 C 112.400 283.017,111.993 283.392,109.588 285.900 M10.752 289.287 C 10.937 290.398,10.993 290.455,11.119 289.654 C 11.201 289.133,11.103 288.543,10.901 288.341 C 10.679 288.119,10.621 288.493,10.752 289.287 M256.784 288.500 C 257.013 288.775,257.564 289.450,258.009 290.000 C 258.769 290.939,258.767 290.908,257.970 289.500 C 257.503 288.675,256.952 288.000,256.745 288.000 C 256.531 288.000,256.548 288.216,256.784 288.500 M214.168 291.831 C 214.020 292.618,214.061 294.013,214.260 294.931 C 214.584 296.436,214.619 296.295,214.610 293.500 C 214.599 290.002,214.547 289.808,214.168 291.831 M259.400 292.400 C 259.741 293.060,260.111 293.600,260.221 293.600 C 260.331 293.600,260.141 293.060,259.800 292.400 C 259.459 291.740,259.089 291.200,258.979 291.200 C 258.869 291.200,259.059 291.740,259.400 292.400 M103.037 294.300 C 102.225 295.565,101.979 296.108,102.490 295.506 C 103.500 294.318,104.947 292.000,104.679 292.000 C 104.588 292.000,103.849 293.035,103.037 294.300 M153.600 293.600 C 153.600 294.260,153.780 294.800,154.000 294.800 C 154.220 294.800,154.400 294.260,154.400 293.600 C 154.400 292.940,154.220 292.400,154.000 292.400 C 153.780 292.400,153.600 292.940,153.600 293.600 M100.115 298.500 C 98.381 300.767,97.466 302.120,97.809 301.913 C 98.281 301.627,100.937 298.000,100.674 298.000 C 100.577 298.000,100.326 298.225,100.115 298.500 M153.000 301.200 C 152.850 301.673,152.817 302.150,152.927 302.260 C 153.037 302.370,153.250 302.073,153.400 301.600 C 153.550 301.127,153.583 300.650,153.473 300.540 C 153.363 300.430,153.150 300.727,153.000 301.200 M265.591 301.588 C 266.057 302.241,266.642 302.902,266.891 303.056 C 267.141 303.211,266.841 302.676,266.225 301.868 C 264.888 300.115,264.384 299.892,265.591 301.588 M389.274 302.254 C 389.233 303.384,389.463 304.914,389.784 305.654 L 390.369 307.000 390.378 305.200 C 390.385 303.945,390.276 303.577,390.018 303.985 C 389.758 304.396,389.603 303.920,389.498 302.385 L 389.348 300.200 389.274 302.254 M95.375 304.450 C 94.552 305.325,94.452 305.547,95.041 305.191 C 95.767 304.751,97.043 303.200,96.678 303.200 C 96.608 303.200,96.021 303.763,95.375 304.450 M152.156 304.434 C 152.126 305.248,152.226 305.485,152.450 305.133 C 152.870 304.470,152.904 303.200,152.500 303.201 C 152.335 303.201,152.180 303.756,152.156 304.434 M268.400 305.200 C 269.097 306.080,269.757 306.800,269.867 306.800 C 269.977 306.800,269.497 306.080,268.800 305.200 C 268.103 304.320,267.443 303.600,267.333 303.600 C 267.223 303.600,267.703 304.320,268.400 305.200 M151.333 307.029 C 151.081 307.563,151.026 308.000,151.211 308.000 C 151.558 308.000,152.181 306.447,151.932 306.199 C 151.855 306.122,151.585 306.495,151.333 307.029 M91.385 308.900 L 89.400 311.000 91.500 309.015 C 92.655 307.923,93.600 306.978,93.600 306.915 C 93.600 306.617,93.229 306.949,91.385 308.900 M389.301 308.200 C 389.305 309.080,389.387 309.393,389.483 308.895 C 389.579 308.398,389.575 307.678,389.475 307.295 C 389.375 306.913,389.296 307.320,389.301 308.200 M17.359 307.700 C 17.201 307.975,17.222 308.063,17.406 307.896 C 17.590 307.729,18.204 307.999,18.770 308.496 L 19.800 309.400 18.830 308.300 C 17.712 307.031,17.738 307.042,17.359 307.700 M220.360 307.800 C 221.034 309.105,221.588 309.828,221.585 309.400 C 221.583 309.180,221.214 308.550,220.764 308.000 C 220.221 307.336,220.085 307.269,220.360 307.800 M19.759 310.500 C 19.601 310.775,19.622 310.863,19.806 310.696 C 19.990 310.529,20.604 310.799,21.170 311.296 L 22.200 312.200 21.230 311.100 C 20.112 309.831,20.138 309.842,19.759 310.500 M274.400 312.252 C 274.400 312.464,275.165 313.349,276.100 314.219 L 277.800 315.800 276.200 314.006 C 275.320 313.020,274.555 312.135,274.500 312.039 C 274.445 311.944,274.400 312.040,274.400 312.252 M24.571 314.297 C 25.215 315.009,25.830 315.504,25.938 315.396 C 26.045 315.288,26.058 315.155,25.967 315.100 C 25.875 315.045,25.260 314.551,24.600 314.001 L 23.400 313.003 24.571 314.297 M224.191 314.700 C 224.537 315.415,225.003 316.000,225.226 316.000 C 225.487 316.000,225.479 315.822,225.202 315.500 C 224.966 315.225,224.500 314.640,224.167 314.200 C 223.658 313.527,223.661 313.607,224.191 314.700 M387.392 318.024 C 387.246 318.484,387.233 318.967,387.363 319.097 C 387.494 319.227,387.600 319.048,387.600 318.700 C 387.600 318.352,387.816 317.995,388.080 317.907 C 388.430 317.790,388.438 317.671,388.109 317.467 C 387.847 317.305,387.546 317.539,387.392 318.024 M279.200 317.710 C 279.200 317.771,280.595 319.166,282.300 320.810 L 285.400 323.800 282.410 320.700 C 279.633 317.821,279.200 317.417,279.200 317.710 M286.035 324.300 C 286.278 324.685,286.954 325.343,287.538 325.763 C 288.380 326.368,288.314 326.223,287.222 325.063 C 285.705 323.454,285.362 323.233,286.035 324.300 M61.200 324.800 C 60.245 325.106,60.257 325.122,61.476 325.160 C 62.178 325.182,62.864 325.020,63.000 324.800 C 63.284 324.340,62.636 324.340,61.200 324.800 M384.200 326.000 C 383.859 326.660,383.669 327.200,383.779 327.200 C 383.889 327.200,384.259 326.660,384.600 326.000 C 384.941 325.340,385.131 324.800,385.021 324.800 C 384.911 324.800,384.541 325.340,384.200 326.000 M144.752 330.087 C 144.937 331.198,144.993 331.255,145.119 330.454 C 145.201 329.933,145.103 329.343,144.901 329.141 C 144.679 328.919,144.621 329.293,144.752 330.087 M144.109 335.600 C 144.109 336.590,144.187 336.995,144.282 336.500 C 144.378 336.005,144.378 335.195,144.282 334.700 C 144.187 334.205,144.109 334.610,144.109 335.600 M143.450 340.450 C 143.110 342.149,143.184 346.019,143.575 347.000 C 143.764 347.475,143.901 346.056,143.911 343.500 C 143.929 338.945,143.852 338.439,143.450 340.450 M232.894 346.200 C 232.894 349.674,232.938 349.937,233.228 348.200 C 233.413 347.100,233.413 345.300,233.229 344.200 C 232.938 342.463,232.894 342.726,232.894 346.200 M366.600 344.400 C 365.940 344.837,365.580 345.192,365.800 345.188 C 366.201 345.182,368.376 343.623,368.000 343.612 C 367.890 343.608,367.260 343.963,366.600 344.400 M144.101 351.000 C 144.105 351.880,144.187 352.193,144.283 351.695 C 144.379 351.198,144.375 350.478,144.275 350.095 C 144.175 349.713,144.096 350.120,144.101 351.000 M333.400 350.400 C 333.872 350.603,333.968 350.755,333.633 350.772 C 333.322 350.787,333.173 350.906,333.303 351.037 C 333.433 351.167,333.958 351.140,334.470 350.977 C 335.363 350.693,335.368 350.669,334.600 350.369 C 333.483 349.932,332.378 349.961,333.400 350.400 M350.000 350.400 C 349.564 350.682,349.543 350.789,349.924 350.794 C 350.212 350.797,350.337 350.978,350.203 351.195 C 350.060 351.427,350.230 351.486,350.613 351.340 C 351.097 351.154,351.139 351.010,350.775 350.785 C 350.428 350.570,350.506 350.424,351.042 350.287 C 351.513 350.166,351.573 350.078,351.200 350.053 C 350.870 350.030,350.330 350.187,350.000 350.400 M338.001 351.100 C 338.002 351.265,340.055 351.400,342.564 351.400 C 345.073 351.400,346.918 351.268,346.663 351.106 C 346.052 350.718,338.000 350.713,338.001 351.100 M232.000 354.600 C 232.000 355.150,232.155 355.600,232.345 355.600 C 232.534 355.600,232.603 355.150,232.498 354.600 C 232.393 354.050,232.238 353.600,232.153 353.600 C 232.069 353.600,232.000 354.050,232.000 354.600 M228.253 364.900 L 227.533 366.200 228.358 365.200 C 229.089 364.313,229.414 363.600,229.086 363.600 C 229.024 363.600,228.649 364.185,228.253 364.900 M226.911 366.900 C 226.129 367.911,225.863 368.532,226.336 368.240 C 226.810 367.947,227.757 366.400,227.463 366.400 C 227.372 366.400,227.124 366.625,226.911 366.900 M153.000 370.800 C 153.859 371.680,154.652 372.400,154.762 372.400 C 154.872 372.400,154.259 371.680,153.400 370.800 C 152.541 369.920,151.748 369.200,151.638 369.200 C 151.528 369.200,152.141 369.920,153.000 370.800 M155.200 372.906 C 155.200 372.994,155.965 373.674,156.900 374.417 C 157.835 375.160,158.346 375.452,158.036 375.065 C 157.451 374.337,155.200 372.623,155.200 372.906 M187.800 384.357 C 188.900 384.492,191.060 384.495,192.600 384.364 C 194.890 384.169,194.526 384.125,190.600 384.119 C 187.548 384.115,186.528 384.202,187.800 384.357 " stroke="none" fill="#1cbc5c" fill-rule="evenodd"></path></g></svg>